<?xml version="1.0" encoding="utf-8"?>
<!-- Generator: Adobe Illustrator 18.0.0, SVG Export Plug-In . SVG Version: 6.00 Build 0)  -->
<svg version="1.1" id="Layer_1" xmlns="http://www.w3.org/2000/svg" xmlns:xlink="http://www.w3.org/1999/xlink" x="0px" y="0px"
	 viewBox="0 0 1400 980" enable-background="new 0 0 1400 980" xml:space="preserve">
<g>
	<g>
		<path fill="#231F20" d="M327.8,109.7c0,0-0.1-1.9-2.6-1.9c-2.5,0.1-9.9,12.6-9.9,12.6c-2.2,0.1-3.3,1.6-3.3,1.6s-2.7-0.2-3.9,1.6
			c-1.2,1.8,1.9,3.6,1.9,3.6s-4,2.6-6.4,6.1c-2.4,3.5-1.2,8.7-1.2,8.7c-2.6,2.6-2.2,10.9-2.2,10.9l-0.3,3.9l-12.2-5.1
			c0,0-0.1-1.2-0.5-1.7c-0.4-0.5-1.5-1.2-3.8-2.4c-2.3-1.2-6.6-4.4-9.6-6.7c-3-2.3-11-4.4-14.9-5.6c-3.9-1.2-10.3-5.5-11.6-5.6
			s-6.1,4.3-6.1,4.3s-8.7-1.8-10.9-4c-2.2-2.2-2.5-5.3-2.5-5.3c1.7,0,3.9-0.1,5.5-2.1c1.6-1.9,1.2-3.7,1.7-6c0.4-2.3,2-4.7,2.5-9.1
			c0.5-4.3-1.2-7.9-1.2-9.1c0-1.2,0.4-3.9,0.5-5.2c0.1-1.4-0.6-3-1.5-4.3c-0.9-1.3-1.2-4.3-1.2-4.3c0.8-3.3-2.6-6.9-5-8.3
			c-2.4-1.4-3.1-3.7-3.1-3.7c-0.9-9-7.9-8.6-7.9-8.6c-0.6-2.2-3.7-2.9-3.7-2.9c-3.2-3.1-12.3-3.8-20.5,1.5
			c-8.2,5.3-9.9,15.4-9.5,19.8c0.4,4.4,1.5,10.4,1.5,10.4s-0.6,9.3-0.2,10.9c0.4,1.6,1.6,2.2,1.6,2.2s0.1,3.1,1.6,5.9
			c1.5,2.7,5.1,7.6,6.9,10.2c1.7,2.6,5.8,4.6,5.8,4.6s-0.6,3-1.2,4.7c-0.6,1.7-0.3,1.5-0.6,1.8c-0.2,0.3-5.4,3.3-5.4,3.3l-0.5-0.9
			l-25.8,3.7l0.1,4.3c0,0-3.6,1.7-5.7,2.9c-2.1,1.2-4.6,2.6-8.8,6.1c-4.2,3.5-9.9,7-12.7,9.4c-2.7,2.4-2.6,3.8-2.6,3.8
			s-8.3,4.8-12.9,7.3c-4.6,2.5-9.5,6.7-10.6,12.4c-1.1,5.7,1,4.6,7.2,7.8s30,3.8,30,3.8c2.9,4.5,8.1,0.7,8.1,0.7
			c4.7,1.8,5.9-1.5,5.9-1.5s0.9,0,2.5-1.4c1.6-1.4,0.9-6.6,0.9-6.6s0.3-0.6,0.4-3.1c0.1-2.5-1.5-7.2-1.5-7.2s1.1-0.2,1.7-0.7
			c0.7-0.6,0.1-1.7,0.1-1.7l4.6-2.6c0,0,0.5,2.4,0.8,3.6c0.3,1.2,1.2,2.8,2.7,5.8c1.4,3,2,12.6,3.6,15.4c1.6,2.8,7.9,10.9,7.9,10.9
			c-1.5,2.5-2.1,8.1-2.1,8.1s-1.7,2.2-4.1,5.9c-2.3,3.6-9.9,13.7-10.7,15.8c-0.8,2.1,1.3,3.2,1.3,3.2l-5.6,10.3
			c0,0-6.1,4.7-17.6,16.1c-11.5,11.4-26.1,26.9-26.1,26.9s-3.6,2.2-4.1,3.4c-0.6,1.1,1.6,1.4,1.6,1.4s-0.1,1,0.5,1.9
			c0.6,0.9,2.2,0.5,2.2,0.5l1.1,1.1c0,0-2.6,4.6-2.2,5.2c0.3,0.6,3.7-3.3,3.7-3.3s0.6,1.4,0.2,2.2c-0.3,0.8-1.6,3.2-1.2,3.6
			c0.3,0.4,1.8-0.6,1.8-0.6s0.7,0.7,1.2,1.7c0.4,0.9,0.7,2,0.3,3.1c-1,2.3-2.1,3.8-2.7,9.4c-0.7,5.6,1.4,12.4,5.1,19.7
			c3.7,7.3,13.9,24.2,16.1,28.4c2.2,4.2,1.9,7.4,1.9,8.3c0,0.4-0.3,3.2-0.7,5.8c-0.2,1.2-0.4,2.2-0.6,3c-0.7,2.5-0.1,11.4-0.4,14.1
			s-3.9,6.3-3.9,6.4c0,0.1,5.3,5.2,5.3,5.2s-0.5,2.8,0,3.7c0.5,0.8,5.2,4.5,5.2,4.5s1.2,2,4.3,5.1c3.1,3.1,20.1,13.5,20.1,13.5
			s-1.5,3-2.8,4.1c-1.2,1.2-7.1,1.9-8.3,2.3c-1.2,0.4-2.5,1.8-2.1,2.8c0.4,1,3,1,3,1s0.4,1.3,3.7,1.3c3.2,0.1,5.7-0.7,8.4-0.7
			c2.7,0,4.8,0.2,6.4-1.2c1.6-1.4,4.2-7.3,4.2-7.3l10.3-0.6c0,0-0.4,1.6-0.3,2.5c0.1,0.8,0.7,2.4,5.7,2.9c5.1,0.5,9,0.3,12.8,0.6
			c3.8,0.3,6.8,1,9.4,1.6s13.1,0.7,14.8,0.7s5-0.5,5-0.5s1.6,0.4,3-1.2c1.5-1.6-2-2.9-2-2.9s-0.4-1.3-2.5-2
			c-2.1-0.7-9.3-2.8-9.3-2.8s3-0.8,6.9-2.8s5.7-2,7.5-3.5c1.8-1.5,1.1-3.3,1.1-3.3s4.9-3.2,4.9-5.4c0-2.2-4.1-10.9-4.1-10.9
			c1.7-4,1.9-10.4,1.7-15.5c-0.2-4.4-0.7-7.9-0.7-7.9s9-13.3,9.2-13.7c0.2-0.4,10.7-16.3,12.5-19.7s1.4-4.9,1.4-4.9s0.7-0.4,1.4-1.1
			s0-2.2,0.7-5c0.7-2.8,1.6-5.5,1.1-6.6c-0.5-1.1-0.6-2.8-0.4-6c0.2-3.2,1.1-4.3,0.9-6.7c-0.2-2.4-2.1-3.2-2.7-4.1
			c-0.7-0.9,0.1-1.1,0.8-2.6s0-6.5-1.1-9.5c-1-3-2.3-4-2.9-5.9s0.5-2.1,0.2-5.5c-0.3-3.4-3.8-7-4.2-8.1c-0.3-1.1,0.1-3.9-0.3-6.7
			c-0.5-2.8-4.1-6.6-4.1-6.6s0.2-2.5-0.1-4c-0.3-1.5-2.7-4-2.7-4l-0.2-0.9l-4.6-22.9c0,0,1.4-3.6,0.8-5.7c-0.6-2.1-4.6-5.8-6.1-8.3
			c-1.5-2.5-0.1-1.3-0.7-4c-0.6-2.7-4.6-7.7-6.6-11.6c-1.7-3.1-1.8-5.1-1.9-6.3c0-0.3,0-0.5-0.1-0.7c-0.2-1.1,0.6-2.5,0.3-5.2
			c-0.3-2.7-0.9-2.9-0.8-4.9s1.1-1.9,2.1-3.4c1-1.5,0.2-2.2,0.2-3.5c0-1.2,0.9-1.7,0.9-3.4s0.4-2.4,0.8-6c0-0.2,0.1-0.4,0.1-0.5
			c0.5-3.2,1.4-5.1,3-7.4c1.6-2.5,1.6-7,1.6-7s1.6-1.1,2.6-2.1c1-1,1.5-2.7,1.5-2.7s0.5,0.5,1.4,0.9c0.9,0.4,6.2,1,10.2,2.3
			c4.1,1.3,5.7,1.6,7.4,1.6s19.4,5.2,21.8,5.6c2.4,0.3,3.3,1.4,4.7,1.5c1.4,0.1,4-0.9,5.8-1.2c1.8-0.3,2.7-1.6,2.7-1.6
			c2.5-3.6,3.2-17.8,3.2-17.8c1.1-3.4,0-7,0-7c3.2-7.2-2-11-2-11c1.6-4.7,2.9-5.6,3.7-7.7c0.8-2.1,0.2-2.3,0.7-4.7
			c0.5-2.4,2.7-6.5,5-9.9c2.3-3.4,4.1-4.1,4.6-5.1C329.1,111.1,327.8,109.7,327.8,109.7z"/>
		<path fill="none" d="M157.4,181.5c1.2-0.1,1.7-2.2,1.7-2.2l-7.6,2.2C151.5,181.5,156.2,181.6,157.4,181.5z"/>
		<path fill="#ED1C24" d="M239.9,166.9c-7.3-6.6-28.9-15.5-36.8-18.6c-7.9-3.2-7.8-8.6-7.8-8.6c-1.3,2.1,1.8,9.3,2.5,15.2
			c0.7,5.9,3.9,30.2,4.1,38c0.2,7.9,2.1,8.3,1.5,12.3c-0.6,3.9-2.5,10.4-1.4,14.7c1.1,4.3,3,4.3,8.3,5.8c5.3,1.5,19.3,1,29-4.8
			c3.4-2,5.9-4.6,7.9-7.6c0-0.3,0-0.5-0.1-0.7c-0.2-1.1,0.6-2.5,0.3-5.2c-0.3-2.7-0.9-2.9-0.8-4.9s1.1-1.9,2.1-3.4
			c1-1.5,0.2-2.2,0.2-3.5c0-1.2,0.9-1.7,0.9-3.4s0.4-2.4,0.8-6c0-0.2,0.1-0.4,0.1-0.5C249.2,177,245.9,172.2,239.9,166.9z"/>
		<path fill="none" d="M157.4,181.5c1.2-0.1,1.7-2.2,1.7-2.2l-7.6,2.2C151.5,181.5,156.2,181.6,157.4,181.5z"/>
		<path fill="#ED1C24" d="M228.2,261L225,371.5c0,0,15.4-9.9,23.4-14.8c8.1-4.9,13.9-5.1,13.9-5.1l-3.4,29.8c0,0-7.7,6.6-15.5,11.4
			c-7.9,4.9-18.4,6.4-18.4,6.4l-1.1,17.6c0,0,10.1-1.9,19.3-6.7c4.9-2.6,10.3-6,14.2-8.6c-0.2-4.4-0.7-7.9-0.7-7.9s9-13.3,9.2-13.7
			c0.2-0.4,10.7-16.3,12.5-19.7s1.4-4.9,1.4-4.9s0.7-0.4,1.4-1.1s0-2.2,0.7-5c0.7-2.8,1.6-5.5,1.1-6.6c-0.5-1.1-0.6-2.8-0.4-6
			c0.2-3.2,1.1-4.3,0.9-6.7c-0.2-2.4-2.1-3.2-2.7-4.1c-0.7-0.9,0.1-1.1,0.8-2.6s0-6.5-1.1-9.5c-1-3-2.3-4-2.9-5.9s0.5-2.1,0.2-5.5
			c-0.3-3.4-3.8-7-4.2-8.1c-0.3-1.1,0.1-3.9-0.3-6.7c-0.5-2.8-4.1-6.6-4.1-6.6s0.2-2.5-0.1-4c-0.3-1.5-2.7-4-2.7-4l-0.2-0.9
			c-1.9-0.3-4.5-0.8-8-1.6C246,267.9,228.2,261,228.2,261z"/>
		<path fill="none" d="M157.4,181.5c1.2-0.1,1.7-2.2,1.7-2.2l-7.6,2.2C151.5,181.5,156.2,181.6,157.4,181.5z"/>
		<path fill="#ED1C24" d="M158.3,392.5l7.1,1.7l3.4,5.4l4,0.9c0,0,10.2,11.1,16.2,13.2c6,2.1,10.2,0,10.2,0l1.4-14.9l-17.9-6.1
			l0.2-3.4l-7.2-1.7l-2-5.2l-6.1-1.2l-2.6-5.2l-4.4-1.6l-5-5.5l-9.9-7.4c0,0,0-5.5-0.6-9.4c-0.6-3.9-0.6-21-0.6-21s7.4,2,8.5,2.9
			c1.1,0.9,11,5,16.9,9.7s7,8.4,7,8.4l4.9,3.2l1.2,4.4l4,1.7l1.2,3.1l4.9,0.7l-0.4,2.2l8.1,2.6l2.7-121.1l-9.7,8.4
			c0,0-2.4,3-3.4,6.2s-22,51.9-22,51.9l-3.7-3.2l-4.1,1.1l-1.9-2.9l-2.9,0.6l-2.5-3l-3.9,1.2l-2.2-2.5l-4.5,1.6l-2-2.9l-4.2,0.9
			l-0.5-2.5l-6.4,8.1c0.4,0.9,0.7,2,0.3,3.1c-1,2.3-2.1,3.8-2.7,9.4c-0.7,5.6,1.4,12.4,5.1,19.7c3.7,7.3,13.9,24.2,16.1,28.4
			c2.2,4.2,1.9,7.4,1.9,8.3c0,0.4-0.3,3.2-0.7,5.8l8,1.3L158.3,392.5z"/>
	</g>
	<g>
		<path fill="#231F20" d="M861.2,143.1c0,0-6.2,3.4-9.1,5.4s-6.7,5.2-8.4,5.8c-1.7,0.5-6.5,1.6-12.1,5.1c-5.6,3.5-8,8.5-8.9,12.4
			l-5,0.8c0,0-1.2-1.2-3.1-1.2c-1.9-0.1-1.7,0.4-3.8,1.2c-2.1,0.8-6.5,1.3-6.7,1.3s-2.1-0.6-3.2-0.6c-1.1,0-2,0.6-2,0.6
			s-1-2.2-4-4.5c-3-2.3-4-3.3-5.8-5.2s-4.7-6.5-5.7-7.6c-1-1.2-3.2-5.6-3.2-5.6s0.8-2.4-1.4-5.6s-8-10.9-9.2-12.3s-3.4-0.7-3.4-0.7
			s-2.2-0.9-2.7-0.2c-0.5,0.7,0,3.5,0,3.5s-0.1,0.5-0.2,1.3s0,1.9,0,1.9s-4.2,2.3-4.4,5.3c-0.1,3,2.9,7.4,4.3,9.5
			c1.4,2.1,1.8,2.8,3.6,5.2s18.9,31.6,22.9,35.3s6.9,1.6,9.9,1.4c3-0.2,14.8,0.8,14.8,0.8s-1.6,7.5,3.5,13.3c0,0-1.2,2.7-0.9,4
			c0.3,1.3,1.3,2.6,1.3,2.6s-2.9,1.9-4.8,4.1c-1.8,2.1-3.7,4.5-5.9,5.8s-6.3,3.9-11.4,7.2c-5.1,3.3-8.9,5-9.5,5.7
			c-0.6,0.8-0.7,0.9-3.5,2.6s-21,14.3-28.1,17.5c-7.1,3.2-30.4,13.4-38.4,18.4c-8,5-10.8,5.1-13.2,9.6s0.7,13.5,0.7,13.5l-7.7,5.4
			c0,0,1.8,1.8,3.9,2.2c2,0.4,5.1,2.7,10.2,7.6c5.1,4.9,24.2,22.7,34.5,25.6c10.3,2.9,27.6-5.4,37-7.4c9.5-2.1,18.3-1.9,18.3-1.9
			s-3.4,14.9,0.1,21.4s23.7,28.2,28.9,34.6c5.2,6.3,7.4,10.1,7.4,10.1l0.9,11.4c0,0-1,1.9-1.2,3.2c-0.1,1.3-0.1,2.8-0.1,2.8
			s-1.8-0.1-2.5,2.7c-0.6,2.8,2.1,20.3,2.5,21.4c0.4,1,0.8,1.8,0.8,1.8s-5.4,3.6-8.4,4.9c-3,1.3-5.7,1.4-6.2,3
			c-0.5,1.6,0.4,3.5,2.8,3.4c2.5-0.1,16.8,0,16.8,0s3.6,1.3,6,0.6s1.9-1,5.7-0.6c3.8,0.4,7,0.4,7.3-1.2s0-6.3,0-6.3s9.9-6,15.7-8
			c5.8-2.1,8.7-5.1,8-7.8s-5.2-7.4-5.2-7.4s1.4-0.3,1.2-2.2s-4.4-6.2-5.2-7.3s-2.6-4.8-5.7-10.1c-3.1-5.3-6.9-6-6.9-6
			s-4.3-5.7-4.5-6.9c-0.3-1.2-2.8-28.5-2.8-28.5s3.4-0.5,5.7-2.1s14.4-5.6,15.8-6.3s4.1-6.1,4.1-6.1s3,6.9,8.9,10.4
			c6,3.5,15.8,6.9,25.4-3.4s20.1-14.4,25.3-13c5.2,1.4,3.9,2.5,10.9,3c7,0.5,9.8,2.8,13.6,1.2s7.1-0.6,10.1,0.9
			c3,1.6,14.4,9.2,14.4,7.4s-4.1-11.9-9.6-14.8s-6.3-4-12.8-11.8c-6.5-7.8-16.2-18.7-34.2-34c-18-15.2-27.6-20.9-32.4-26.1
			c-4.8-5.2-18-19.2-18-19.2s10.4-1.4,15.3,0.6c4.9,2.1,8.3,4.5,11.3,7.9c3,3.4,6.6,3.6,6.6,3.6s-1.9-3.8-1.2-6.2
			c0.8-2.5,1.6-3.6,1.6-7.8c0-4.1-2.1-5.1-1.3-10.4c0.8-5.3,2.2-6,4.3-16.1s1.3-14.5,0.9-20.1c-0.4-5.6-4.5-14.2-6-16.3
			c-1.4-2.1-3.4-1.6-3.8-4.8s0-16.2,1-20.9c1-4.7,2.1-5.6,4.4-8.2c2.3-2.6,4.4-13.6,1.8-23.4s-7.6-13.3-13.1-15
			c-5.4-1.7-13.6-0.5-13.6-0.5s-0.8-5.2,0.3-12.1c1.1-6.9,3.3-17.5,3.6-18.5c0.3-1,6.4-3.2,9.6-5.2c3.2-2.1,7.3-5.1,7.3-6
			c0.1-0.8-0.1-1.9-0.1-1.9s2.9-1.7,1.1-3.4c-1.8-1.6-4.3-0.3-7.3,1c-3,1.3-3.7,1.7-6.7,1.7c-3,0-5.8,1.7-5.8,1.7s-0.3-2.1,1-3.9
			c1.2-1.8,1.1-4.7-1-4.7c-2.1,0-1.9,2.3-3.3,4.4c-1.4,2.1-2.3,2.7-3.7,4.7c-1.4,1.9-1.9,3.6-1.9,3.6s-4.5,2.9-5.2,4.5
			c-0.8,1.6,0.6,6.7,0.5,8.7s-3.4,8.8-3.7,12.8c-0.3,4-1.4,11.4-2.2,14.6c-0.8,3.2-0.2,2.5-3,7.2c-2.8,4.7-3.3,10.6-3.3,10.6
			s-0.3,1.2-1.9,4.4s-2.3,3-3.3,4.8C861.1,140.8,861.2,143.1,861.2,143.1z"/>
		<path fill="#00A651" d="M980.5,338.6c-5.4-2.8-6.3-4-12.8-11.8c-6.5-7.8-16.2-18.7-34.2-34c-18-15.2-27.6-20.9-32.4-26.1
			c-4.8-5.2-18-19.2-18-19.2s0.4,0,1-0.1c-3.2-0.4-5.2,0.9-10.2,2.8c-6.9,2.7-14.9,6.2-22.9,5.4c-8-0.8-13.1-4.9-11.9-7.5
			c1.2-2.6,11.4-6,18.7-10.8c7.3-4.8,9.8-9.5,9.8-9.5l-2.5-6.2c0,0-2.1,1.7-7.3,3.4c-5.2,1.7-16.8,1-24.5-1.6
			c-5.6-1.8-12.1-5.3-15.3-7c-0.8,0.6-3,2.1-4.5,3.9c-1.8,2.1-3.7,4.5-5.9,5.8s-6.3,3.9-11.4,7.2c-5.1,3.3-8.9,5-9.5,5.7
			c-0.6,0.8-0.7,0.9-3.5,2.6s-21,14.3-28.1,17.5c-7.1,3.2-30.4,13.4-38.4,18.4c-3.8,2.4-6.4,3.6-8.4,4.8c-0.1,6,4,12,4.1,13.8
			c0.1,2.2-4.5,4.5-4.5,4.5s4.8,2.6,8.8,8.3c4,5.7,14.6,15.3,21.4,20.1c6.7,4.8,20.9,5.7,28.4,1s26-11.8,45.9-4.7
			c19.8,7.1,27.3,24.5,34.5,25.6c7.1,1.2,14.4-1.2,22-4.3c7.6-3.1,8.5-7.9,6.7-13.7c-1.8-5.8-0.4-11.9,6.7-13.9
			c7.1-1.9,14.4,4.3,13.2,9.7c-1.2,5.4-5.6,3.5-8.4,7.5c-2.8,4-1.9,10.1,5.8,13.6c7.8,3.5,15.7-2.6,20.5-7.8
			c4.8-5.2,9.3-8.9,21.6-7.8c12.3,1.2,15.7,6,21.6,6c6,0,7.1-1.9,11.8-1.9c4.7,0,9.6,4.7,12.4,5.3c1.1,0.3,3,0.2,4.9-0.1
			C984.3,341.6,982.5,339.6,980.5,338.6z"/>
	</g>
	<g>
		<path fill="#231F20" d="M620.3,331.3c-0.4-1.2-3-5.9-5.8-10.7c-3-5.2-6.2-10.7-7.3-12.6c-2.1-3.7-8.7-13.2-11-16.5
			c-1.5-2.2-3.3-4.8-4.3-6.3c-0.5-0.8-0.9-1.3-0.9-1.3s-0.4-6.5-1.5-8.7c-1-2.2-1-0.9-2.2-4.4c-1.1-3.5-5.6-9-5.6-9.4s0.7-5.1-0.9-9
			c-1.6-3.9-2.8-11.3-5-17.1s-4.8-12.6-6.9-15.1c-2.1-2.5-3.2-4-3.2-4s2.5-3,1.9-6.1s-3.7-6.8-5.2-7.8c-1.5-1-3.7-9.5-4.6-12.3
			s-1.8-6.8-1.8-6.8l1.9-2.9c0,0-2.6-2.3-3.3-3.6c-0.7-1.3-5.7-12-5.7-12s0.9-1.6,4.4-2.8c3.5-1.2,6-1.3,6-1.3s0.2,3.8,1.1,4.5
			c0.9,0.7,1.1,0.6,1.5-1.1c0.4-1.7,1.1-2.6,0.9-3.7c-0.3-1.1-2.3-4.5-2.3-4.5s8-1,9.6-2.5c1.6-1.5,1-2.4,0.2-2.7s-3.7,1.1-5,1.3
			c-1.3,0.1-8,0-7.9-0.1c0-0.1,3.6-3,5.8-4c2.2-1,3.5-1,3.7-2.3c0.2-1.3,0-1.7-1.5-1.3c-1.5,0.4-4.9,1.9-6.5,2.6
			c-1.6,0.7-6.5,2.3-6.5,2.3s1.3-1.8,2.6-2.7c1.3-0.8,3.7-2.1,3.8-3.2c0.1-1,0.3-1.5-1.6-0.8c-1.8,0.7-3.9,2-5.8,3.4s-4.4,3-5.8,3.7
			c-1.4,0.7-3.1,1.5-3.1,1.5s-1-11.1-2.1-14.1s-2.4-5-3.5-10.7s-3.5-12.4-7-20.2c-3.5-7.7-8.5-17.1-12.3-21
			c-3.7-3.8-10.4-5-15.1-7.5s-9.6-4.8-12.5-6.3c-3-1.5-3.9-2-5-1.7s-1.7,1-1.7,1s-15.6-3.7-18.1-5.9c-2.5-2.3-8.2-4.5-11.8-5.6
			c-3.7-1-8,0.4-8,0.4s-1.5,0.1-3.1,0.2l-3.5,0.2c-1.8,0-4.4,0.3-5,0.5c-0.7,0.2-0.9,0.3-0.9,0.3s-1.1,0.3-1.2,0.5
			c-0.1,0.2-0.3,0.9-0.3,0.9s-1.5-0.2-2.4,0.4c-0.9,0.6-0.7,1.6,0,1.8s1.5,0.2,2,0.5c0.5,0.3,0.7,0.4,1.2,0.5c0.5,0,1.4,0,1.4,0
			s2.2,2.3,2.7,2.6c0.4,0.3,1.3,0.3,1.3,0.3s0.7,0.9,2,1.4c1.3,0.6,2.5,1.1,3.6,2.1c1,1,1.3,1.8,3.2,1.9c1.8,0.1,2.6,0.1,3.6,0.3
			c1,0.2,2.7,0.2,4.3,0c1.6-0.2,1.7-0.9,3.4-1c1.7-0.1,7,2.2,10.7,3.6c3.7,1.4,10.7,4.7,10.7,4.7s-0.3,0.6,1.1,1.3
			c1.5,0.8,4.4,2.1,5.4,2.7s3.6,2.3,5.9,3.6c2.3,1.3,4,2.6,5.6,3.7c1.6,1.2,1.1,1.1,3.1,2s3,1.4,3,1.6c0,0.2,0.5,2.7,2.8,4.3
			c2.3,1.6,2.5,1.5,3.1,2.3c0.6,0.8-0.3,0.6,0.4,2.6c0.7,2,1.4,1.6,1.9,3.8c0.5,2.2,0.9,5.4,1.9,8c1,2.7,3,5.7,3,5.7s-0.6,4.3,1,5.9
			c1.6,1.6,2.5,1.6,2.9,2.3s1,4.9,1.1,6.6c0.1,1.7-0.2,2.2,0.5,3.4c0.7,1.3,0.7,1.6,0,2.2c-0.7,0.6-1.1,0.4-1.3,1.2
			c-0.2,0.8-0.3,2.6-0.3,2.6s-0.4,0.3-0.6,0.9c-0.2,0.7,0,1-0.8,0.7s-1.9-1.2-3-2.2c-1-1-1.5-1-1.9-2c-0.4-0.9-3.5-8.5-4.1-9.8
			c-0.6-1.3-1-2.7-1.1-3.9c-0.1-1.2-0.1-2.2,0-2.4c0.1-0.3,1.1-2.1,1.5-4c0.4-1.9-0.4-5.4-0.4-5.4s1.5,0.2,1.5-1s-1.6-1.8-1.6-1.8
			l-0.2-1.2c0,0,0.6-0.8,0.6-1c0-0.2-0.2-1.2-0.6-1.3c-0.4-0.2-0.8,0.2-1-0.4c-0.2-0.6-0.4-0.8-1.3-0.7c-1,0.1-1.6-0.3-1.5-0.6
			c0.1-0.3,1-0.1,1.5-0.7c0.5-0.7,0.6-1.8-0.3-2s-1.1,0-1.5-0.4c-0.4-0.4-0.4-0.8-0.8-2.2s-1.3-1.1-2.2-1.5s-0.6-1-1.4-1.6
			c-0.8-0.5-1.8-0.9-3-1.7c-1.2-0.8-1.4-1.3-3.1-2c-1.7-0.7-1.6,0.2-2.7-0.3s-2.8-1.8-4.3-1.8c-1.5,0-1.1,1.7-2.9,1
			c-1.7-0.7-2.4,0-2.7,0.4c-0.3,0.4-2.1-0.2-2.8,0.3c-0.7,0.5-0.8,0.7-1.1,1.3s-0.7,0.7-1.3,1.3c-0.7,0.5-0.3,0.7-1,1
			c-0.7,0.3-2.4,0-3.1,0.6s-0.2,0.4-0.8,1c-0.7,0.5-0.8,0.7-0.9,1.4c-0.1,0.7,0.3,2.4,0.3,2.4s-2.6,2.4-3.5,7.6
			c-1,5.1-0.1,9.5,2,12.7s4.2,5.4,4.8,6.9c0.7,1.5,0.1,3.5,3.7,6.8s6.8,5.4,9.5,6.7c2.7,1.3,4.5,0.5,4.5,0.5s2.4,1.9,3.3,3.7
			c0.9,1.8,0.6,6.4,0.6,6.4l-2.5,4.6c0,0-1.7,0.2-3.2,1c-1.5,0.9-1.1,1.2-2.3,1.5s-1.8-0.2-5.8,2.7c-4,2.9-6,4.4-6.4,5.6
			c-0.4,1.3,0,1.2-0.4,2.6c-0.4,1.4,0.4,3.1,1.2,5c0.8,1.9,1,3.7,3.1,5.9c2,2.3,3.5,2.1,4.9,3.8s6.5,8.1,15.8,15.3
			c9.4,7.2,18.2,12.6,18.2,12.6s-0.1,0-0.3,0c-0.4,0.1-1.3,0.4-1.6,1.2c-0.5,1.1-0.7,3.4-0.7,3.4s0,0,0,0c-0.2,0.1-0.8,0.1-3.8-0.6
			c-3.7-1-5.5-1.6-7.3-1.7c-1.7-0.1-3.8-0.2-3.8-0.2s1.3,1.1,4.2,1.9c2.8,0.8,8.8,3,8.8,3l-0.7,0.5c0,0-5-1.6-7-1.7
			c-2-0.2-5.6-1.1-5.6-1.1s0.8,1.4,3.2,2.7c2.4,1.3,6.4,2.9,6.4,2.9l-0.9,0.7l-1.7,1.3l-0.4,0.3c0,0-2.8-0.1-3-0.1
			c-0.1-0.1-0.4,1.9-0.4,2.1c0,0-0.5,0.6-1.4,1.5c-1.8,1.8-5.2,5-9,8.1c-5.7,4.5-8.5,4.6-14.9,10.4c-6.4,5.7-13.9,11-22,20
			c-5.9,6.6-11.1,11.6-14.6,15.6c-1.3,1.5-2.3,2.8-3.1,3.9c-2.8,4.4-3,7.1-3,7.1s0,0.1-0.1,0.1c-0.4,0.7-2.8,4-7.8,7.7
			c-1,0.8-2,1.4-3,2c-4.1,2.6-7,3.8-7.4,6.9c-0.4,3.7,0.5,9.7,10.5,17c10,7.3,17.7,14.5,21,15.5c3.3,1,3.1,0.4,7.1,1.3
			c4,0.9,14.2,6.2,14.2,6.2s-4.9,11-8.7,18.3c-3.8,7.3-6.6,12.5-6.6,12.5s-3-2-4.8,1.3c0,0-2.2,0.5-2.6,1.7
			c-0.4,1.1,0.3,0.8-0.4,1.8c-0.7,1-1.7,1.6-1.6,3.1c0.2,1.6-1.7,4.7-2.1,5.7c-0.3,1-0.3,2.5,0.2,3.7c0.4,1.1,0.3,1.1,0.3,2.7
			c0.1,1.6,0.9,2.3,0.9,2.3s-0.2,3.3,0.1,4.6c0.3,1.3,0.8,0.6-1.2,4.1c-2,3.5-1.5,4.9-2.4,7c-1,2.2-2.2,3-7,8.9
			c-4.8,5.8-7.3,8.1-8.8,9.9c-1.5,1.8-4.1,3.8-4.1,4.9c0,1,1,1.2,2,1.9s2.6,1.5,3.6,1.5s1.2-0.6,2.4,0c1.2,0.6,4.3,0.6,5.7,0
			c1.5-0.6,1.5-0.6,3.4-1.1c1.9-0.5,2.9-1.5,4.2-4.1c1.3-2.6,5-8.1,6.8-9.6c1.8-1.5,3.8-2.3,5.1-7.7c1.3-5.3,0.8-5.1,1.4-7
			c0.6-1.8,1-2.5,1.2-2.6c0.3-0.1,2.9-1.5,3.3-2.2c0.4-0.7,1.1-2.7,1.1-2.7s2.5,1.3,3.7-2.3c0,0,1.7,0.5,2.6-0.4s0.4-1.6,1.6-3
			c1.1-1.5,1.2-1.8,2.2-2.9c1-1,0.6-2.7,1.7-3.7c1-1,1-1.5,0.3-2.6s-0.9-2.7-1-3.2c-0.2-0.5-0.9-1.2-0.3-2.2c0.6-1,1.7-3.5,2.5-4.5
			c0.8-1,4.4-2.1,6.7-6.5s2.9-7.2,4.8-9.8c1.9-2.6,5-8.4,5-8.4s12.4,5.3,18,6.4s10.9,2.2,10.9,2.2s-0.5,1.6-0.6,2.9
			c0,1.3,0.1,1.1,0,2.8s-1.7,4.2-1.7,4.2s-0.5-2-2.2-1.6s-2.5,0.6-3,2.8c-0.5,2.2-0.4,2.9-0.4,4s-0.1,2.8-1.6,4.4s-2.7,2.7-1.5,4.4
			c1.2,1.7,2.3,2.2,2.3,2.2s-1.7,3.3-1.7,4.5s0.8,2.8,0.8,2.8s-6.7,10.2-6.6,14.1c0.1,3.9,0.3,5.8,5.6,6.7s9.6,0.6,14.9,1.6
			c5.3,1,9.6,3,12.5,2.9c3-0.2,2.5-0.2,4.7,0.4c2.2,0.6,5.9,0.8,7-0.1c1-0.9,0.2-2.8-0.4-4.1s-1.5-2.8-2.9-3.4s-2.8-0.9-7.2-2.2
			c-4.4-1.3-7.5-1.9-9.9-3.4c-2.4-1.5-4.5-2.9-4.5-4.1c0-1.2-0.8-1.2,0.6-2.3s2.6-2,3.1-2.8c0.5-0.8,1.7-2.5,1.7-2.5
			s3.6-0.1,4.7-1.3c1.1-1.2,1-1.8,1.9-3.7c0.9-1.9-0.3-3.2,1.4-5.2s2.3-2.3,1.6-3.1c-0.8-0.8-1.4-0.9-1.4-2.5s1-5.3,1-5.3
			s2.5-0.2,3.5-3.2c1-3,1.4-6.2,1.4-6.2s2.5-0.3,3.9-1c0.5-0.2,0.8-0.5,0.8-0.8c0.1-1.1,1.2-9.2,1.2-9.2s0.2,0.3,0.9,0.6
			c0.9,0.4,2.7,0.9,5.9,0.6c5.6-0.4,11.3-1.8,11.3-1.8v0v2.3c0,0,13.5,1.7,20,0c5.3-1.4,7.9-3.2,8.3-5.7c0.1-0.5,0.1-1.1-0.1-1.7
			c-0.7-3.4-1.2-5.5-1.2-5.5s16.7-12,21.5-16.7S621.2,333.9,620.3,331.3z"/>
		<path fill="none" stroke="#ED1C24" stroke-width="0.6961" stroke-miterlimit="10" d="M453.4,59.1c-3.7-1-8,0.4-8,0.4
			s-4.8,0.4-6.7,0.4"/>
		<path fill="#FFF200" d="M545.9,225.3c0,0-2.9-0.6-5.7,0.8c-2.8,1.3-5.2,2.7-5.2,2.7S539.9,229.4,545.9,225.3z"/>
		<path fill="#FFF200" d="M442.9,296.3c1-2.5,0.2-4.5-0.7-6.6c-1.3,1.5-2.3,2.8-3.1,3.9c-2.8,4.4-3,7.1-3,7.1s0,0.1-0.1,0.1
			C439.3,299.8,442.1,298.5,442.9,296.3z"/>
		<path fill="#FFF200" d="M533.5,226.7c5.6-1.1,5.9-2.8,7.5-4.8c1.6-2,0.7-2,0.7-2s-7.2,0.6-12.3,0.7s-3.5-1.9-4.8-1.1
			c-1.2,0.8-2.6,1.6-5.4,0.7c-0.3-0.1-0.6-0.2-0.9-0.2c-0.4,0.1-1.3,0.4-1.6,1.2c-0.5,1.1-0.7,3.4-0.7,3.4s0,0,0,0
			c0.8,0.6,1.6,1.1,2.3,1.4C521.4,226.9,528,227.8,533.5,226.7z"/>
		<path fill="#FFF200" d="M527.2,232c0,0-4.7-0.3-11.1-0.7c-2.4-0.2-4.7-0.4-6.5-0.7l-1.7,1.3c1.5,0.6,3.5,1.2,5.7,1.5
			C517.7,233.9,527.2,232,527.2,232z"/>
		<path fill="#FFF200" d="M434.6,321.8c8.7,7.5,21.9,16.7,26.6,17.9c4.7,1.2,5.2-0.7,10.6,2.8c5.4,3.5,36.7,14.8,36.7,14.8
			s1.4-9,2.6-11.8s3-3.5,4.8-4.4c1.8-0.9,13.5-2.3,22.7,2.4c9.2,4.7,8.5,10.3,15.1,11s11.7-1.4,16.7-2.6c5-1.2,21.8-2.3,21.8-2.3
			l-2.3-8c0,0,18.8-9.2,22.8-16.9c0.7-1.3,1.2-2.7,1.7-4.2c-3-5.2-6.2-10.7-7.3-12.6c-2.1-3.7-8.7-13.2-11-16.5
			c-1.5-2.2-3.3-4.8-4.3-6.3c-0.8,1.7-1.6,3.4-1.9,4.3c-1,2.4-3.5,1.4-5.9,3.7c-2.4,2.3-4,6.3-4,6.3s-5.2-37.6-6.3-41.2
			c-1-3.7-5.2-5.7-6.6-8.4s-0.5-7-1.4-9.8c-0.9-2.9-5.2-2.7-5.2-2.7l-6.4,13.9l1.9-16.5l-6.1-5.9c0,0-2.8,0.7-6.8,1
			c-4,0.3-6.8,2.1-9.9,3.7c-3.1,1.6-12.9,5-19.7,5c-3.7,0-7.8-1.5-10.8-2.9c-1.8,1.8-5.2,5-9,8.1c-5.7,4.5-8.5,4.6-14.9,10.4
			c-6.4,5.7-13.9,11-22,20c-5.9,6.6-11.1,11.6-14.6,15.6c0.8,2.1,1.6,4.1,0.7,6.6c-0.9,2.2-3.7,3.5-6.8,4.6c-0.4,0.7-2.8,4-7.8,7.7
			c-1,0.8-2,1.4-3,2C426.2,313.5,429,317,434.6,321.8z"/>
		<path fill="#FFF200" d="M545.4,363.8c-4.4-4.8-12-10.2-18.4-11.5s-13.3,0.7-14.6,3.5c-1.3,2.8,2,6.4,12.1,10.6
			c9.4,3.9,22.2,7.5,23.3,11.4c0.5-0.2,0.8-0.5,0.8-0.8c0.1-1.1,1.2-9.2,1.2-9.2s0.2,0.3,0.9,0.6C548.8,367.1,547,365.6,545.4,363.8
			z"/>
		<path fill="#FFF200" d="M570.3,366.4c-1,0.2-1.8,0.5-2.5,0.8v2.3c0,0,13.5,1.7,20,0c5.3-1.4,7.9-3.2,8.3-5.7
			C589.8,362.4,578.8,364.2,570.3,366.4z"/>
	</g>
	<g>
		<path fill="#231F20" d="M1285.2,71.5c-0.2-0.6-1.5-1.1-3.2-0.9s-6.5,2.2-7,2.7s-1,0.8-1,0.8s-1.6-6.3-1.8-9.3
			c-0.2-3,0.3-3.5,0.3-4.6c0-1.1-1.3-2-2.3-1c-1,0.9-1.5,2.8-1.6,5.5c-0.1,2.7,0.1,6.9,0.1,6.9s-4.7-2.5-6.8-3.8s-2.6-2.8-3.4-2.3
			c-0.7,0.5-0.9,2-0.2,3.2c0.7,1.1,5,3.6,5.9,4.6s1.5,1.9,1.5,1.9s-2.5,0.2-4.5-0.6c-2-0.8-3.4-2.1-3.8-1.5c-0.4,0.6-0.8,2,0.8,3
			c1.6,1,3.9,2,5.9,2.4s2.7,0,3,0.9c0.3,0.9,0.6,2.6-0.5,3.9s-2.3,0.7-3.7,3c-1.4,2.4-1.5,4.2-1.5,4.2s-4.4,5.3-4.7,6.4
			c-0.3,1.1-0.2,2.6-0.2,2.6s-11.6,10.5-15.1,14.7c-3.5,4.2-7.7,11.6-8.8,12.7c-1,1.1-3.9,1.3-9.8,7.4c-5.9,6.2-7.3,6-11.7,9.2
			c-4.4,3.2-8.1,4.8-9.9,6.8c-1.9,2-3.3,4-6.3,5.4c-3,1.4-3.7,1.2-4.6,2.6c-0.9,1.3-2.8,3.1-2.8,3.1l-1-0.5c0,0,4.1-4.6,3.9-11.1
			s-4.7-10.1-5.3-14.3c-0.6-4.2,1.6-12.1-2.7-17.7c-4.2-5.5-6-7.4-10.1-8.5s-11.8,0.5-14.5,5.3c0,0-1.7-0.1-4.4,0.9
			c-2.7,1-3.6,2-4.2,2.8c-0.6,0.9-4.1,2.6-5.8,5.2c-1.7,2.6-1.4,3.9-1.9,6.7c-0.5,2.8-0.8,4.9-0.3,6.2c0.4,1.2,0.9,3,1,4.5
			c0.1,1.6-1.4,4.5-1.2,6.2c0.1,1.7,2.2,5.4,3.8,7c1.6,1.6,1.9,3.8,2.7,5c0.8,1.2,3.6,1.7,5.8,1.3c2.2-0.4,2.4-1.2,3.3-0.3
			c0.9,0.9,3.8,7.5,3,8.7c-0.8,1.2-3.4,2.3-3.4,2.3s-1.4-0.1-2.3,0c-0.9,0.1-0.8-0.3-2.7,0c-1.9,0.3-1.4,0.8-3.4,0.6
			c-2-0.1-6.8-3.1-9.2-3.8c-2.4-0.6-3.4-0.7-5.2-2.2c-1.9-1.5-6.5-5.5-8.7-7.1c-2.2-1.6-4.4-2.6-6.2-5.1c-1.7-2.5-4.2-4.4-7.8-5.9
			c-3.6-1.5-9.9-4-12.9-5.7c-3-1.7-13.2-6.7-13.4-6.8c-0.2-0.1-0.8-1-2.4-1.9c-1.7-0.8-5.5-2.7-5.5-2.7s-0.5-0.7-1.1-1
			s-0.9,0.1-1.3-1.1s-1.5-2.4-3-2.3c-1.6,0.1-1.6,0.1-1.6,0.1s-0.1-1.2-0.8-1.6c-0.6-0.4-1.7-0.7-1.7-0.7s-0.8-3.2-2-5.4
			c-1.2-2.2-2.4-3.6-2.4-3.6s1.9-1.5,2.7-4.2c0.8-2.7,0.4-3.1-0.6-3.4c-1-0.3-1.7,1-2.1,1.7c-0.4,0.7-0.7,1.1-1.7,1.7
			c-1.1,0.6-2.6,1.7-3,1.3c-0.4-0.4,0.6-1.8,0.9-4.1c0.3-2.3,0.7-4.6,0.7-7.6s0.4-3.2-0.4-3.9c-0.8-0.7-1.9-0.7-2.4,0
			c-0.6,0.7-0.3,2.5-0.8,4.8c-0.6,2.3-1,4.5-1.4,5.9s-0.5,2.2-1.1,2.7c-0.6,0.5-1.9,0.7-2.3-0.6c-0.4-1.3-1.7-4.7-2.8-7.3
			s-2.4-5.6-3.4-6c-1-0.4-2.6-0.4-2.8,1.1s0.7,2.3,1.7,5.1c1,2.8,2,5.2,2.2,6.8c0.1,1.6,0.6,3,0.2,3.6c-0.4,0.7-1.3,0.8-2.5,0.2
			c-1.2-0.6-2-1-2.7-1s-2.3,0-2.3,0s-1.4-4.4-2.5-6.5c-1.1-2.1-1.2-1.3-2.1-3c-1-1.7-1-2.5-2.1-2.8c-1.2-0.3-2.9,0.2-3.5,1.3
			c-0.7,1.1-0.7,3.1-0.7,3.1s-1-0.8-2.1,0.9c-1,1.7,0.3,3.3,0.3,3.3s-0.6,1-0.7,1.6c-0.1,0.5,0,1.1,0,1.1s-1.8,0.4-1.3,2.2
			c0,0-2.1,1.2-1.5,3.7c0,0-1,0.8-0.7,3.7c0.2,2.9,3.9,8,5.3,13.4c1.3,5.4,0,6.6,1.2,10.5c1.2,4,2.8,5.4,4.7,6.1
			c1.9,0.7,3.4,2.7,3.4,2.7s0.3,2.2,1.6,3.3c0,0-1.3,6.4,6.8,9.9c0,0,1-0.5,2.3,0.9c1.3,1.4,3.1,5.9,3.1,5.9s1.4,4.7,0.2,8.2
			c-1.2,3.5-2.8,7.5-2.2,9c0.6,1.5,1.3,0.5,4.1,3.9c2.8,3.4,4.6,8.8,9.1,13c4.4,4.2,8.5,10.9,13.1,16.6c4.6,5.7,9.5,10.3,13.5,16.4
			c3.9,6.1,7.6,10.7,7.6,10.7l-10.2,13.5l-0.6,8.9l-5.1,13.6l1.7,9.1l-3.8,13.7l1.3,9.1l-2.6,13.6l3,22.5l2,7.4l9.4,14.4l2.3,4.8
			l11.1,12.8l20.5,15.5l-1.6,6.2l7.8,4.9l4.4,3.2l4.6,0.6l9.1,2.5l4.5,2.6l5.4,0.4l4.2,1.5c0,0-0.4,2.1-1.2,3.4
			c-0.8,1.3-3.7,6.4-4.2,10c-0.4,3.6,0.8,6,3.7,6.5c2.9,0.5,22.7,0.5,27.3,1s6,0.8,7.2,0.8s1-0.3,3,0s6.4,0.3,7.7-0.5
			c1.3-0.9,2.4-1.7,1-3s-1.9-1.4-6-2.1s-16.7-8.1-16.7-8.1s1.9-1,1.9-4.4c0,0,3.5-2.1,5.3-6.8c1.8-4.7,2-8.5,5.4-13.7
			s11.8-17.6,14.5-20.2c2.6-2.6,4.4-4.7,5.7-7.2c1.3-2.5,2.4-1.5,3.6-4.6c1.1-3.1,1.7-8.8,1.7-8.8s5.2-8.4,5.1-12.3
			c-0.1-3.8-1-5.1-0.8-7.7s-1.2-3.1-1.4-5.1s-0.2-4.6-0.2-7.1c0-2.5-1.6-1.2-1.9-4s0.3-6.5-1.2-9.1c-1.5-2.6-3-2.3-3-4.7
			c0-2.4,1.3-3.7,0.3-5.4c-1-1.7-3.6,0.8-3.5-3.4c0.1-4.2-1.5-7-2.5-9.1c-1-2.1-1.1-4.8-2.4-9.1c-1.3-4.3-1.7-5.4-3-6.2
			c-1.3-0.8-2.6,0.9-1.8-1.9c0.8-2.8,0.6-5.1,0.6-10.7s-0.1-9.7-0.5-12.1c-0.4-2.4-0.2-4.1,1.2-7.2c1.4-3.1,2.8-4.8,3.2-6.6
			c0.4-1.8-0.2-6.3-0.2-6.3s5.2-4.5,6.9-12.2c1.7-7.7,0.2-19.6,0.3-27.2c0.2-7.6-3.6-16.5-4.2-22.7c-0.6-6.3-2.9-7.4,0.1-12.3
			c3-4.9,12-15.6,17.8-21.3c5.7-5.7,23.8-30.4,26.6-34.5c2.8-4.1,6-8.4,6-8.4s2.3,0.4,3.6-1.1c1.3-1.5,2.6-3.4,3.8-4.4
			c1.2-1,2.4-2.4,3-4.5c0.7-2.1,0-5,0-5s0.3-3.7,0.6-6.6c0.3-2.9,0.2-4.8,1-7.2s4-4.6,6.4-5.4C1284.6,72.7,1285.4,72.1,1285.2,71.5z
			 M1042.8,126.7c0,0-3-8.9-3-10.5c0,0,4.7,1.8,6,4.2s1.7,2.9,1,4S1042.8,126.7,1042.8,126.7z M1156.7,226.2c0,0-1.7-3.3-4-4.7
			c-2.3-1.4-4.5-2.7-6.1-2.2c-1.6,0.5-4.8,6.9-4.8,6.9s-13.4-10.5-16.6-13.2c-3.3-2.7-8.5-8.7-13.5-11.7c-4.9-3-4.9-1.8-8-2.4
			c-3.1-0.6-3.1-1.8-5.6-3c-2.6-1.2-3.8-1-3.8-1s-5.4-7.1-7-8.9c-1.6-1.7-3.7-2.3-5-3.8c-1.3-1.6-13-14.1-17.2-17.9
			c-4.2-3.8-6.5-5.1-6.5-5.1s4.4-1.6,3.8-5.2c-0.6-3.7-2.1-6.2-3.1-8.4c-1-2.2-2.4-3.2-3.7-3.3c-1.3-0.1-2,1.3-3.1,1.7
			c-1.1,0.4-2.3-0.4-2.3-0.4l-5.7-12.9c0,0,4.2-0.7,7-0.3c2.8,0.3,7,2.8,7,2.8s-0.9,3.2,1,5.3c1.9,2.1,5.6,0.7,5.6,0.7
			s-0.7,3.2,3,5.1c3.7,1.9,7.4,3.2,8.8,3.8c1.3,0.6,2.8,0,2.8,0s10.4,5.1,17.5,8.5c7.1,3.4,10.1,5.1,11.5,6.8s8.8,12.5,15.9,19.2
			c7.1,6.7,14.6,10.9,17.6,13.8c3,2.8,4.9,7.5,5.2,8.9c0.2,1.3,0.3,1.3,2,3.8s2.3,2.3,3.3,4.4s1.1,2.8,2.1,4.1
			c1,1.3,2.5,0.7,2.3,2.4c-0.2,1.7-0.9,2.6-0.4,3.3c0.5,0.7,1.5,1.7,1.5,1.7L1156.7,226.2z"/>
		<g>
			<path fill="#00AEEF" d="M1147.1,186.2c1.8-3.4,0.3-11-0.7-14.8c-2.3-0.8-5.8-2.9-7.8-3.4c-1.1-0.3-1.9-0.5-2.7-0.7
				c0.4,2,0.7,4.8-0.1,8.2c-1.1,4.7-5.6,8.2-8.1,9.7c4.4,3.7,8.6,6.5,11.6,8.7C1141.6,192.3,1145.4,189.3,1147.1,186.2z"/>
			<path fill="#00AEEF" d="M1155.8,218c0.7,0.4,1.4,0.4,1.3,1.6c-0.2,1.7-0.9,2.6-0.4,3.3c0.5,0.7,1.5,1.7,1.5,1.7l-0.3,0.3
				c1,0.2,1.8,0.1,2,1.3c0.3,1.6-3,6-1.9,6.9s3-0.8,5.7,1c2.7,1.7,2,4.4,3.5,3.7c1.5-0.7,1.7-4.5,0-7.9c-1.7-3.4-5.5-5.2-3.8-6.5
				c1.7-1.3,8.8,2.6,10.1-2c1.3-4.6,4.5-22.8-2.8-36.4c-4.8-8.9-8.9-13.5-11.2-15.7c-1,1.1-3.1,2-3.1,2s-1.3-0.1-2.3,0
				c1.1,3.6,3.2,11.5,3.6,21.2C1157.9,202.6,1156.4,213.6,1155.8,218z"/>
			<path fill="#00AEEF" d="M1218.2,145.3c-1.4-1.8-2.7-3.1-3.7-4c-1,0.6-2,1.2-3.3,2.2c-4.2,3-7.7,4.6-9.6,6.5c1.8,1.5,4,4,6.2,8.4
				c3.9,7.7,4.4,12.3,5.4,13.9c0.1-0.1,0.1-0.2,0.2-0.4c1.7-2.8,5.5-7.6,9.5-12.3C1222.4,154,1220.3,148,1218.2,145.3z"/>
			<path fill="#00AEEF" d="M1077.8,180.3c0.1-0.8,0.1-1.9,0-3.2c-4.1-4.4-9.9-10.5-12.6-12.9c-1.2-1.1-2.3-2-3.2-2.7
				c0.1,2.3,0.5,5.7,0.7,8.1c0.3,3.9-0.4,6.3-4.6,11.6c-2.7,3.4-5.9,8.2-7.8,11.2c0.5,0.4,1,1,1.7,1.8c2.8,3.4,4.6,8.8,9.1,13
				c0.6,0.6,1.2,1.2,1.9,1.9c2-3.6,4.5-8.7,4.3-10.6c-0.4-3-0.8-3.4,1.8-6.3s9.7-6.4,9.5-8.2S1077.4,182.6,1077.8,180.3z"/>
			<path fill="#00AEEF" d="M1177.2,415.4c0,0,6.8-22.8,9.8-40.6s0.3-21.4-0.3-34.3c-0.7-12.9-0.3-48.3-0.2-55.7
				c0.2-7.5,1.4-16.5,1.4-16.5l-10.3-12c0,0-13.2,21.2-33.1,40.7c-19.9,19.5-28.2,26.7-34.1,29.6c-5.9,3-13.6,4.9-13.6,4.9
				s-2.6-3.5-2.6-4s-0.2-15.2-0.2-15.2l-5.4-7.8l4.9-13.9l-0.9-9.6l8.9-9.4l-0.3-8l7.3-0.3c0,0,14.6-11.4,21.1-25.4
				c3.4-7.3,5.3-12.7,6.3-16.2c-4-3.1-8.8-7-10.6-8.5c-0.3-0.2-0.6-0.5-0.9-0.8c-2.3,5.6-6.6,15.3-11.5,22.3
				c-7.3,10.5-24.7,29.8-24.7,29.8l-1.1,7.7l-5.7,14.2l2.1,9.2l-4.1,14.1l1.4,8.5l-2.1,13.6l3.6,22.3l3,4.9l-1.6,2.8l8.7,13
				l12.1-12.5l-8.9,17.1l9.6,11.8l21,15.9l-2.2,2.9l-2.4,3.2l1.6,0.9l8.2,4.4l4.3,3.1l4.3,0.6c0,0,7.3,2.4,7.9,2.6
				c0.6,0.1,5.5,2.6,5.5,2.6l6.1,1.2l13.2,4.8l4.6-2.4l6,2.4h5.7c0.9-1.1,1.8-2.4,2.5-4.2c1.4-3.6,1.8-6.6,3.4-10.2l-14.4-0.4
				L1177.2,415.4z"/>
		</g>
	</g>
	<g>
		<path fill="#231F20" d="M241.2,650.5c0,0-0.8,1.1-1.2,1.9s-0.3,3.1-0.3,3.1l-3.2,3c0,0-2.1-0.2-3.8-0.2s-5.3,1.7-7.4,2.6
			c-2.1,0.9-4,1.1-5.8,2.3c-1.8,1.2-3.9,3.5-4.9,7.2c-1,3.7-0.3,6.4-0.3,6.4s-1.5,1.9-2.7,5s-1.3,4.7-2,6.4c-0.7,1.7-4.1,8-4.6,9.2
			c-0.5,1.2-0.5,2-0.5,2s-5.2,9.8-7.7,12.9c-2.5,3.1-2.5,3-4.9,3.8c-2.4,0.8-3.3,0.5-7.3,3.3c-3.9,2.8-11.3,7.4-11.3,7.4
			s-3-1.2-5.1,1.8c0,0-3.8-1.7-5.9,2.9c0,0-4,0.1-5.3,3.8c0,0-1,0.3-2-0.2c-1-0.4-3.8-2.1-7.2-2.3c-3.4-0.3-10.4,2.8-10.4,2.8
			l-1.2-0.3c0,0,0.2-3.8-1.7-5.5c-1.9-1.6-2.8-0.4-3,0.3c-0.2,0.7,0.5,2.9,0.5,4.3c0,0-2.3-0.5-3.1,0c-0.8,0.5-0.7,1.5,0.5,2.4
			c0,0-6,1.1-8.4,4.6s-1.9,4.9-1,5.2c0,0-1.3,1.5-0.8,2.8c0.5,1.3,1.5,1.2,2.7,0.4c1.2-0.8,3.5-2.8,5.4-3.3c1.8-0.6,3.9-0.6,3.9-0.6
			s-0.4,0.6,0.2,1.2c0.6,0.6,3.9,0.2,4.4-0.3s0.4-1.3,0.4-1.3s5.4-0.8,8.8-0.5s6.4,0.6,8.6,1.8c2.2,1.3,4.4,1.1,4.4,1.1
			s1.2,3.6,5.5,3.1s6.7-2.6,6.7-2.6s3.1,0.6,4.7-1.1c1.6-1.7,1.8-2.2,1.8-2.2s2.3-0.4,3.3-1.5c1.1-1.1,1.8-2.3,1.8-2.3
			s21.9-9.7,27.9-13.2s9.3-10.3,9.9-11.4c0.5-1.2,0.8-1.8,0.8-1.8s1.2,1.4,1.3,2.2c0.1,0.8,0,1.4,0.3,1.8c0.3,0.3,0.6,0.7,0.6,0.7
			s-1.5,1.3-2.3,2.5c-0.8,1.2-0.8,1.8-2,2.4c-1.2,0.6-6,3.8-10.1,10.6c-4,6.9-5.9,8.6-6.7,11.5c-0.8,2.9-0.1,2.5-1,4.6
			c-0.9,2.1-2.8,6-3.4,8.5c-0.6,2.6-0.5,4.3-0.5,4.3s-0.9,21.8,1.9,34.9c2.8,13.1,6.7,28,6.7,30.3s-0.1,3,1,6.4
			c1.2,3.5,9.4,14.3,9.4,14.3s-1,3.9-0.6,5.4c0.4,1.4,2.5,1.9,3.8,5c1.3,3.1,2.8,4.5,2.8,5.3c0,0.9-1,1.7-0.9,2.6
			c0.1,0.9,1.1,0.1,3,4.6c1.9,4.5,2.8,6,2.3,8.7c-0.5,2.6,0.2,4.2,0.5,4.6c0.3,0.3,0.6,1,0.6,1s-0.6,1.2-0.3,2.2
			c0.3,1,2.5,5.5,3.3,7.7c0.8,2.3,0.7,4.9,0.7,4.9s-3.5,2.4-6,4.2c-2.5,1.8-4.2,3.9-4.5,4.8c-0.3,0.8,0.6,1.6,0.6,1.6
			s-0.2,1.2,0.9,1.8c0,0-0.2,0.8,0.6,1.2c0,0-1.1,1.9,1.1,2.6c0,0,1,2.8,4.3,1.8c0,0,1.5,1.8,4.6,1.3c3-0.6,3-1.4,4.2-2.9
			c1.2-1.4,3.1-2.4,5.2-5.3c2.1-3,3.1-5,4.3-6.9s1.3-3,1.3-3s0.9,0,1.3-0.9c0.4-0.9,0.3-2.3,0.3-2.3s1.4,0.1,1.5-0.2s0-0.7,0-0.7
			l2.4,0.5c0,0,0.6,4.2,1.4,6.1c0.8,1.8,0.2,1.4,1.3,3.3c1.1,1.8,4.8,3.7,6.4,3.5c1.6-0.2,5.1-0.6,6.7-0.1s5-0.7,5.1-2.5
			c0.1-1.8,0.5-2.2-0.8-2.4c-1.3-0.2-3.3,0-3.3,0s-0.6-1.1-1.2-1.4s-1.1-0.4-1.1-0.4s0-0.9-0.6-1.3s-1.6-0.7-1.6-0.7s1.6-5.6,2.2-7
			s0.7-1.8,0.7-1.8l1.6,0.9l10.1-3v-1.2l2.6,0.2l0.7-1.9l1.2,0.2l0.7-2l3.8,0l0.3-2.2l5.1,0v-2.8l4.8-0.2l-0.4-3.1l5,0.3l1.3-3.4
			l4.7-0.1l1.9-3.8l4.3-0.2l0.8-4.4l4.4-1.3l0.4-4.1l2.6-4.7l-3.6-4c0,0,2.7-7.5,2.6-11.4c-0.1-3.9-0.2-6-1.5-9.6
			c-1.3-3.6-2.1-4.7-1.1-9.4c1.1-4.8,1.5-11.8-2-19.2s-7.2-11.8-10.2-15.3c-2.9-3.5-6.7-5.3-9.3-8.5c-2.6-3.1-9.1-9.4-13.1-13.7
			s-5.7-5.5-6.2-5.4c-0.5,0.1-0.3,0.8-1.7-1c-1.4-1.8-1.8-2.7-2.6-2.9c-0.8-0.2-1.6-0.9-2-1.9c-0.4-1-0.4-6.8,0.3-9.9
			s1.3-2.8,1.6-5.9c0.3-3,0.5-6.7,0.5-6.7s3.5-1.5,3.1-6.2c-0.4-4.7-0.9-5.1-0.9-5.1s2.8-10,4.3-15.5c1.5-5.5,3.1-12.9,2.6-18.8
			c-0.5-5.9-1.4-7-1.4-7s0.5-5.1-0.1-7.6c-0.6-2.6-1.3-3-0.6-5.4s5.1-10.9,7-14.5c1.9-3.6,0.4-2.2,4.6-7.4s5.9-9.6,9.8-19.5
			c3.9-10,3.6-12.1,4.3-14s0.7-1.7,0.6-5.2s-2.5-4.6-4.3-7.7c-1.8-3.1-10.6-13.5-12.3-15.1c-1.7-1.6-3.1-3.1-3.1-3.1
			s0.7-1.2-0.6-2.9s-3.5-4.4-5-5.3c-1.5-1-1.4-1.9-3.2-3.1c-1.8-1.2-2.6-1.2-3.4-1.1c-0.8,0.1-1.1,0.3-1.2,0.2s-3.1-2.9-3.5-5.1
			c-0.4-2.3-1.4-8.1-0.8-11.3c0.6-3.2,1.5-5.5,1.1-6.5s-0.7-0.3-0.7-1.5s0.1-2.1,0.1-5.2c0-3.1,1.4-6.8,2.2-8.7
			c0.7-1.9,1.5-2.6,0.6-3.3c-1-0.8-2.3,0.1-3.2,1.1c0,0-1.4-0.7-3,0.8c-1.6,1.5-3.3,4.6-4.4,6.7s-1.8,4.3-1.8,4.3s-5.8-0.5-6.4,0.5
			s0.6,2.5,1.6,2.7c0,0-1.3,4.6-1,6.2c0.3,1.6,0.2,1.7-0.2,4.5c-0.4,2.8-0.5,7.2,1.1,10.3c1.6,3.1,5.5,5.5,7.7,7.6
			c2.2,2.1,3,3.3,3,3.3s-2.9,4.8-1.2,6.5c1.7,1.7,3.3,2.4,3.3,2.4s0.5,1.8,1.3,2.6s2.7,1.1,2.7,1.1s-0.8,2.5,3.8,2.6
			c0,0,6.9,11.1,8.6,14.4c1.7,3.3,2.6,4.6,2.7,6.5c0.1,2-5.2,9-7.5,13s-2.5,5.4-3.2,6.3s0,1-0.9,2.2s-5.2,5.1-5.2,5.1s1.1-4.8,1-5.8
			c-0.1-1-0.1-1-0.1-1s1.7,0,1.8-0.5c0.1-0.5,0.2-2.3,0.2-2.3s2,0.8,2.5-0.7c0.4-1.4-0.2-3.7,0.1-4.2c0.3-0.5,0.7-0.6,1.4-1.3
			s1.1-0.8,1.1-1.9s0.5-2.1-0.6-2.8c-1.1-0.7-2.1-0.3-1.3-1.5s1.9-2.6,1.1-4.2s-2-1.8-1.5-3.2c0.5-1.4,2.4-2.7-0.4-5.8
			s-4.1-2.2-4.6-3.2c-0.5-1-1.8-1.3-2.6-2.4c-0.8-1.1-1.6-3.3-3.4-4.1c-1.8-0.8-2.5,0.1-3.9,0.2s-2.4-0.5-2.4-0.5l-1.1-2.9
			c0,0,4.4,0.6,3.7-2.4c-0.7-2.9-5.2-3-7.4-1.3c-2.2,1.7-4.3,5.8-4.3,5.8s-3,0.7-4.8,2c-1.8,1.3-1.4,2.3-2.3,2.8
			c-0.9,0.5-2.1,0.5-2.3,0.8c-0.2,0.3-0.9-0.2-1.9,0.5s-1.8,2.3-1.8,3.2s0,0.7-0.9,1.4c-1,0.7-0.9,1.4-1.1,2.1
			c-0.2,0.7-1.6,0.2-2.3,1.3c-0.7,1.1,0.7,1.4-0.1,2.4c-0.9,0.9-1.8,1-1.8,1.5c0,0.6,1.2,1,0.4,2.1c-0.8,1.1-2.3,0.9-2.4,2.4
			c-0.1,1.5,1.6,2.1,1.1,3c-0.5,0.9-1.2,2.2-0.7,2.6c0.5,0.4,2.1-0.1,2.9,0.2c0.8,0.3,0.4,1.5,0.4,1.5s-2.8,1.3-0.2,3.6
			c0,0-1.3,9-0.4,11.7c0.9,2.7,1.5,3.2,1.5,3.2s-0.2,1.3,0.3,2.4c0.5,1.1,1.1,1.4,1.1,1.4l0,0.9c0,0-3.1,2.2-2.8,3.3
			c0.3,1.2,2.8,1.7,3.6,1.4s1.5-0.9,1.5-0.9L241.2,650.5z"/>
		<path fill="#2E3192" d="M204.5,699c2.1-0.8,6.7-2.2,10.4-1.4c4.9,1.2,8.2,10,8.2,10l4.9-6.2c0,0-2.8-9.6-7-12.7
			c-3-2.2-8.5-1.6-11.3-1c-0.1,0.2-0.1,0.3-0.2,0.5c-0.7,1.7-4.1,8-4.6,9.2C204.7,698.1,204.5,698.6,204.5,699z"/>
		<path fill="#2E3192" d="M259.2,683.2c7.3,1.6,19.8-2,24.7-3.6c0.1-1.3,0.3-5-0.1-7.1c-0.1-0.3-0.2-0.7-0.2-0.9
			c-2.5,1.9-7.4,4.1-15.8,3.5c-14.1-1.1-20.5-5.9-24-10c-1.8-2.1-4.7-4.7-7-6.6l-0.2,0.2c0,0-2.1-0.2-3.8-0.2s-5.3,1.7-7.4,2.6
			c-2.1,0.9-4,1.1-5.8,2.3c-0.2,0.1-0.4,0.3-0.6,0.4c3,2,6.1,4.6,7.6,7.7c3.4,6.9,3.3,21.5,3.8,28.7s-1.4,16.5-4.2,20l4.6,4.5
			c0,0,3.5-2.6,6.6-8.7c3.2-6.1,2.8-21.8,2.2-29.5c-0.6-7.6-3.6-17-6-20c-2.4-3-2.7-3.5-2.7-3.5s7.1,4,10.6,8.1
			S250.2,681.3,259.2,683.2z"/>
		<path fill="#2E3192" d="M278.8,631.6c-0.1,0.1-0.2,0.3-0.3,0.5c-0.5,0.7-2.4,2.4-3.7,3.7c1.2,1.6,4.4,6.1,6.6,9.8
			c1.9,3.2,4.2,9.6,5.4,13.3c1.2-2.4,2.4-4.8,3.2-6.3c0.4-0.8,0.7-1.4,0.9-1.8c-0.7-1.8-1.7-4.2-3.1-7.1
			C285.7,638.9,281,633.8,278.8,631.6z"/>
		<path fill="#2E3192" d="M323.3,842.2c-0.1-3.9-0.2-6-1.5-9.6c-1.3-3.6-2.1-4.7-1.1-9.4c0.1-0.5,0.2-1,0.3-1.6
			c-1.7-1.1-4.2-1.1-4.4-3.3c-0.4-3.1-5.1-6.9-11.7-13.7c-6.5-6.8-8.6-12.4-14.5-19.4s-10-5.9-13.2-8.1c-3.2-2.2-4.4-7.1-4.4-7.1
			l-2.2,0.3c0,0,1.8,9,3.3,10.5c1.5,1.5,6.3,3.1,10.5,6.4s6.7,10.5,6.7,10.5s-2.7,8-7.8,11c-5.1,3.1-19.1,9.5-22.6,9.5
			s-5.1-4.1-10-9.4c-4.9-5.3-2.6-5.8-3.7-10.5c-1.2-4.7-4.9-3.6-5.2-5.5c-0.3-1.9,2.4-7.6,3.5-10.3c1.1-2.7-3.5-4.3-3.4-6.6
			c0.1-2.3,3.2-5,3.2-5s7.7,6.9,12.9,5.3c5.2-1.6,11.2-12.3,11.2-12.3l-2.7-6.1c0,0-1.2,3.5-4.4,6.5c-3.3,3.1-6.6,3.4-10.7,0.3
			S247,748,247,748s-17.1,2.4-29.4,7.5c-7.9,3.3-16.2,8.3-21,11.4c0,1.5-0.1,3.5,0,5.8l15.1-5.4c0,0,2.6-1.7,11.8-4.5
			c9.2-2.8,17.7-3.3,17.7-3.3l0.4,4.7c0,0-4.5,5.2-5.3,8c-0.8,2.8,2.3,3.8,2.5,5.9c0.2,2.1-1.3,10-2.4,13.7c-1.2,3.7,1.3,3.8,2.4,6
			c1.2,2.2,3.7,11.2,3.7,22.5c0,11.3,2.4,23.4,2.3,32.6c-0.1,9.2-0.9,17.6-1.7,20.5s2.8,4.2,2.6,5c-0.3,0.8-2.2,5.3-2.2,5.3
			s3.6,4.4,4.7,5.4s9.5,5,12.7,4.9c3.2-0.1,5.5-1.4,5.5-1.4s0.8,0.8,1.8,1.8l1.6,0.9l10.1-3v-1.2l2.6,0.2l0.7-1.9l1.2,0.2l0.7-2
			l3.8,0l0.3-2.2l5.1,0v-2.8l4.8-0.2l-0.4-3.1l5,0.3l1.3-3.4l4.7-0.1l1.9-3.8l4.3-0.2l0.8-4.4l4.4-1.3l0.4-4.1l2.6-4.7l-3.6-4
			C320.7,853.6,323.4,846.1,323.3,842.2z"/>
	</g>
	<g>
		<path fill="#231F20" d="M523,546.2c0,0-7.3,4-9.2,9.9c-2,5.9-1.4,11.1-0.9,13c0.5,1.9,0.9,2.5,0.5,4.5c-0.5,2-1.1,3.9-1.2,5.1
			c-0.1,1.2,0.9,3.7,2.5,7.7c1.6,3.9,3,6.5,4.5,9.4c1.5,2.9,3,2.6,4.3,3.3c1.3,0.7,0.9,3,0.8,3.3c-0.2,0.4-1.6,0.5-2.3,1.1
			c-0.7,0.6-1.6,1.9-1.6,1.9s-2.2-1.3-4.9-1.2c-2.7,0.1-4.2,0.9-5.7,0.9c-1.5,0-2.2,0-2.6,0s-4.6-1.8-7.3-1.3c-2.7,0.5-3,2-4.5,2.2
			c-1.5,0.1-3.2-1.6-6.8-2.1s-10.5,0.6-12.1,0.6c-1.6-0.1-3.4-1-4.4-0.9c-1,0.1-1.5,0.8-2.9,0.8c-1.3,0-2.6-0.8-4.3-0.8
			c-1.6,0-2.1-0.1-4.3-0.9c-2.2-0.8-4.4-1.3-5.9-1.3c-1.5,0.1-3.3,0.6-3.3,0.6s-4.1-1.3-5.5-2.4c-1.4-1.1-3.3-3.3-4.6-4.9
			s-4.7-4-4.7-4s4.2,0.3,4.7-0.6c0.4-0.8-1.1-2.8-1.1-2.8s2-0.3,0.7-2.2c-1.2-2-4.1-1.8-6.1-2.8c-2-1-3.9-2.4-4.9-2.5
			s-1.1,0.4-2.2-0.3c-1.1-0.6-2.2-1.9-2-2.8c0.2-0.8,3.5-5.7,4.3-7.9s2.1-2.8,2.1-5.2c0-2.4-1.8-5.4-3.1-5.7c-1.3-0.3-1.7,1-1.8,3
			s0.2,2.2-1.1,4.1s-2,2.9-5,5.2s-4.6,2.7-4.6,2.7s-7-1.1-9.9,3.2c-2.9,4.3-2,10,2.2,13c4.2,3,5.5,4.1,6.3,5.2
			c0.8,1.1,2.3,2.3,2.3,2.3s6,9.9,9,12.3s4.3,2.9,6,5c1.7,2.1,3.1,2.8,4.7,3s1.5-0.8,3.7,0c2.2,0.8,6.3,2,6.3,2s-0.4,2.3,3,2.7
			c3.4,0.4,3.6-0.2,8.2,1.5s13.2,4.9,18.3,6.6s10.3,1.8,11.9,3.3c1.6,1.6,3.1,3.9,4.4,6.7c1.3,2.9,2.4,4.8,2.9,6.2
			c0.5,1.4,5.6,14.7,6.4,16.7s2,4,2.2,5.6s-0.5,8.8-0.9,9.5s-8.2,0.1-11.4,5.3c0,0-5.1,0.4-8.8,4.7s-5.3,9.1-6.8,12
			c-1.5,2.9-1.7,2.6-5.8,11.5c-4.1,8.9-4.6,13.8-5.6,20.7c-1.1,7-2.2,10.3-1.8,12.5c0.5,2.2,5.1,1.1,5.1,1.1s-0.1,7,0.2,12.8
			c0.3,5.8,3.9,27.6,7.1,36.2c3.2,8.7,6.1,20.6,6.1,20.6s-2.6,2.8-3.7,5.5c-1.1,2.8-0.8,4.9-0.8,4.9s-1.6,2-0.6,6.1
			c1.1,4.2,1.8,3.7,2.7,2.6c0.9-1.1,0.7-1.1,2.5-1.3c1.8-0.3,2.6-2.9,2.6-2.9s2,3.4,4.2,13.7c2.2,10.3,6.4,16,9.5,18.3
			c3.1,2.2,4.4,3,4.4,3s1.2,3.1,3.9,8.7c2.8,5.6,8,8.7,8.8,10.1c0.9,1.4-1.5,1.8-2.5,3.5s0.5,4,3,7.1c2.5,3.2,8,5.6,8,5.6
			s0.2,3.5-1.6,5.9c-1.9,2.4-9.2,5.9-9.9,8.3c-0.6,2.4,0.3,2.8,0.6,3.1s1.6,1.5,2.5,1c0.9-0.5,1.3-0.4,1.7,0.1
			c0.4,0.5,0.9,1.3,1.9,1.6c1,0.3,1.8-0.1,3.1,0.5c1.3,0.6,1.3-0.9,2.8-0.2c1.5,0.6,3.8,1.3,5.7,0.1c1.9-1.2,2.3-3.7,3.1-6
			c0.8-2.3,1.9-4.4,3.3-4.8c1.4-0.4,4.3,0.1,4.9-3.3c0.5-3.4-0.6-4.9-2-8.3c-1.4-3.4-1.5-4.4-1.5-4.4l4.6,0.6l14.2-2
			c0,0,3.2,1.8,8.3-1.1c5-2.9,4.2-3.4,5.9-11.6c1.8-8.3,4.5-15.2,5-24c0.5-8.8,4.3-12.3,7.2-17.3c2.9-5,4.7-10.2,8.7-15.6
			c4-5.4,7.2-8.2,9.4-14c2.2-5.8,3.6-8,6-9.7c2.4-1.6,4.5-0.2,6.2-4.6s2.8-8.4,2-11.6c-0.8-3.2-6.7-10.2-11.5-15.8
			c-4.7-5.6-12.8-11.5-18.4-16.6c-5.6-5.1-5.5-4.9-8.1-8c-2.6-3.2-7.7-3.8-7.7-3.8s-1.6-1.5-3-3.1s-1.1-3.1-1.9-3.7
			c-0.9-0.6-1.8-1-2.6-2s-1.5-2.8-1.5-2.8s2.8-10.1,2.3-16.4c-0.5-6.3-1.3-5-1.4-8.3s-3.5-3.6-3.6-6.6c-0.2-3,0.7-8.8,4-17.2
			c3.3-8.4,6.3-10.4,9.4-18.6c3.1-8.2,5-12.6,6.6-20.5c1.6-7.9,3-10.8,6.2-14.1c3.2-3.3,15.9-6.8,22.6-9.4s12.9-6.1,12.9-6.1
			s0.9,2.8,2.6,1.8s0.2-1.1,0.9-2.6c0.7-1.5,1.2-2.4,1.2-3.1s-2.7,0.5,0.6-1.8c3.3-2.2,5.5-3.9,6.5-6.4s1.8-4.6,1.1-6
			c-0.8-1.4-4.6-3.4-6.1-5.3c-1.6-1.9-3.8-3.7-8.7-7.4c-4.9-3.7-13.8-8.2-13.8-8.2s-0.8-1.8-1.6-2.5c-0.7-0.7-4.9-2.7-4.9-2.7
			s-2.5-5.7-6.4-6.5c-3.9-0.8-5.4,1.6-6.1,3.6c0,0-8.1,5-10.2,6.8c-2.1,1.7-3,2.5-3.1,4c-0.1,1.5,0.3,3.2-0.4,4.6s-0.8,6.5-0.9,9.3
			s-0.4,5,0.6,5.6s2.5,1.1,2.7-0.7s0.2-4.3,0.5-5.3c0.3-1,0.3-0.9,1.5-2.2c1.2-1.3,1.5-1.8,1.5-1.8l2.3,3.3c0,0-0.8,5.5,0.4,6.5
			c1.2,1,2.9,1,3.1-1.7c0.2-2.7-0.1-4,0.7-6.2s1.7-4.6,1.7-4.6s0.9,0.6,1.4,2.9c0.5,2.3,1.4,4.6,2.8,4c1.4-0.7,1.5-1.3,1.2-2.9
			c-0.4-1.5-1.1-3.3-0.8-4.7c0.3-1.4,0.6-2.1,0.6-2.1s3.5,2.7,4.7,2.9c1.2,0.2,1.8-0.4,2.2-0.3c0.4,0.1,4.2,3.9,6.3,7.1
			c2.1,3.2,2.8,4.7,3.5,5.4c0.7,0.6,1,1,1,1s-4.5,1.1-5.6,1.7c-1.1,0.5-2.4,0.1-3.7,0.6c-1.3,0.5-1.3,1.3-2.1,0.9
			c-0.8-0.4-2.2-0.7-3.3-0.1c-1.1,0.6-1.1,1.5-2.1,1c-1.1-0.5-2.4-1.3-3.7-0.8s-2.7,1.3-4,1.2c-1.3-0.1-1.6-0.6-3.9,0.6
			c-2.3,1.2-2.6,1.1-5.8,2.1s-5.1,1.5-6.1,1.3c-1-0.2-1.1-1.5-3-1.3c-1.9,0.3-4.2,1.7-5.7,2.1s-2.4,0.5-3.6,0.5s-3.3-1.5-3.8-2.2
			s-0.4-1.1,0.4-1.7c0.9-0.6,3.1-2.8,4.5-4.4c1.4-1.6,0.9-2.4,1.9-3c1-0.7,2.3-0.3,3.4-2.3s1.6-5.6,2.5-6.1c0.8-0.6,5.4-6.2,7-18.8
			s-5.3-20.3-11.9-23.8c-6.7-3.5-15.1-4.7-15.1-4.7s-0.8-10.5-5.4-9.9c-4.6,0.6-4.6,5.2-4.6,7.5c0,2.3-1.3,4.9-1.3,4.9
			S525.6,540.6,523,546.2z"/>
		<path fill="#EC008C" d="M499.9,603.8c-2.7,0.5-3,2-4.5,2.2c-1.2,0.1-2.5-1-4.8-1.7l-1.9,2.6l4.9,4l-2.9,4.9l2.9,5l-4.9,4.5l3.4,5
			l-4,2.2c0.3,0.1,0.5,0.3,0.7,0.5c1.6,1.6,3.1,3.9,4.4,6.7c1.3,2.9,2.4,4.8,2.9,6.2c0.1,0.2,0.2,0.5,0.4,1c1.4-1.8,3.2-4.6,3.1-8.2
			c-0.1-6.1,0.8-24.8,2.5-29.7c0.7-2.1,1.3-3.7,1.8-4.9C502.5,603.9,501.1,603.6,499.9,603.8z"/>
		<path fill="#EC008C" d="M562.8,678.3c1.6-4.2,3.2-6.7,4.7-9.3c1.8-8.8,4.2-21,1.7-27c-3.6-8.4-16.5-15.6-21.2-17.9
			c-4.7-2.3-14.1-7.7-20.3-13.2c-3.3-2.9-5.2-5.4-6.2-7c-0.6,0.7-1.3,1.5-1.3,1.5s-0.3-0.2-0.8-0.4c0.7,1.2,1.3,2.7,1.6,4
			c0.7,3-2.1,14.4-3.5,21.5c-1.4,7.1,0.5,23.3,1.8,27c1.3,3.7,3.4,2.9,4.9,4.1c1.5,1.2-1.3,6.5-2.3,14.2c-1,7.7,0.3,11.5,0.3,11.5
			s13.5,5.6,21.4,7.2c5.9,1.2,11.8,1.5,15.2,0.7C558.7,692.1,559.6,686.5,562.8,678.3z"/>
		<path fill="#EC008C" d="M573.4,628.4c1.7,3.2,3.4,9.8,4.5,14.2c0.3-1.1,0.5-2.2,0.7-3.4c1.6-7.9,3-10.8,6.2-14.1
			c0.1-0.1,0.2-0.2,0.3-0.3c0.4-2.8,1.1-5,1.1-5l-3.2-3.1l3.8-6.4l-4.9-4l3.5-4.1l-4.9-3.7c-2.2,1.2-2.6,1.1-5.8,2
			c-3.2,0.9-5.1,1.5-6.1,1.3c-1-0.2-1.1-1.5-3-1.3c-1.9,0.3-4.2,1.7-5.7,2.1c-1,0.3-1.7,0.4-2.5,0.5c0.3,2.9,1.1,7.3,3.6,11.7
			C565.3,622.4,570.8,623.4,573.4,628.4z"/>
		<path fill="#EC008C" d="M604.7,767c-4.7-5.6-12.8-11.5-18.4-16.6s-5.5-4.9-8.1-8c-2.6-3.2-7.7-3.8-7.7-3.8s-0.2-0.2-0.5-0.5
			c-1.1,0.4-2.3,0.6-3.9,0.6c-7.4,0.1-27.4-5-33.5-7.8c-6.1-2.8-13.3-12.3-13.3-12.3s-7.2,9.7-10.2,15.8c-3,6.1-2.8,14.6-2.8,14.6
			l5.2-1.2l0.6,16.5l3-0.8c0,0,3.3,20.6,7.8,36.5c4.6,15.9,5.5,24.6,10.2,34.2c4.7,9.6,8.3,16.3,8.3,16.3l2-6.3l6.2,5.2l3.2-6.6
			l3.9,4.8l3.2-6.6l5.2,6l2.3-8.3c0,0,4.7,6,4.9,5.5c0.2-0.5,5.2-14.5,5.2-14.5l2.6,2.1l5-6.8l3.9,3.5c1.1-2,2.2-3.9,3.7-5.9
			c4-5.4,7.2-8.2,9.4-14c2.2-5.8,3.6-8,6-9.7c2.4-1.6,4.5-0.2,6.2-4.6c1.7-4.4,2.8-8.4,2-11.6C615.4,779.5,609.4,772.6,604.7,767z"
			/>
		<path fill="#EC008C" d="M496.8,797.1c0,0-2-3.2-10.8-13.3s-11-18.7-14.2-24.9c-3.2-6.2-1.2-14.4-1.2-14.4l-2.1,1.3
			c0,1-0.1,7.3,0.2,12.7c0.3,5.8,3.9,27.6,7.1,36.2c3.2,8.7,6.1,20.6,6.1,20.6s-0.1,0.1-0.3,0.3
			C489.1,811.3,496.8,797.1,496.8,797.1z"/>
		<path fill="#EC008C" d="M512.3,856.1l9.7-4.2l-15.7-8.2l12.6-5.2l-15.5-8l12.2-4.5l-12.4-6.6c0,0-12.9,2.9-16.5,6.3
			c-1.2,1.2-2.4,3.8-3.5,6.7c1.1-0.8,1.6-2.4,1.6-2.4s2,3.4,4.2,13.7c2.2,10.3,6.4,16,9.5,18.3c3.1,2.2,4.4,3,4.4,3s1.2,3.1,3.9,8.6
			c2.5-0.4,5-1.1,7.1-2.3c4.5-2.5,12.8-7.5,12.8-7.5L512.3,856.1z"/>
		<polygon fill="#EC008C" points="522.1,872.2 529.4,877.7 522.1,879.7 		"/>
		<polygon fill="#EC008C" points="529.4,883.1 542.8,887.6 531.2,892.2 		"/>
		<polygon fill="#EC008C" points="500.5,806 510.9,814.3 499.9,816.6 		"/>
	</g>
	<g>
		<path fill="#231F20" d="M943,593.2c-0.1-1.4-1.3-2.2-1.3-2.2s1-8.1,0.7-11c-0.2-2.9,0.1-7.7,0-11.5c-0.1-3.8,0-6.6,0-9.9
			c0-3.3-0.8-3.5-4.1-6.2c-3.3-2.7-4.2-2.2-5.5-4.8c-1.3-2.6-0.3-4.1-0.3-4.1s2-1.1,1.7-2.3c-0.2-1.3-0.8-2.2-2.4-2.6
			c-1.5-0.4-2.1,1.1-2.1,1.1s-1.3-1.5-2.4-2.2s-2-0.7-2-0.7c-0.2-1.2-0.5-3.1-2.2-3.2c-1.7-0.1-2,2.5-2,2.5s-0.8-0.2-1.6-0.4
			c-0.9-0.2-2.3,0.4-2.7,1.5c-0.4,1.1,0.5,7.6,0.5,7.6s-1.2,0.3-2.7,0s-2.7-1.3-2.7-1.3c1.3-2.6-1.2-5.2-1.2-5.2
			c1.3-3.5-2.8-4.5-2.8-4.5s0.3-2-0.1-3.1c-0.4-1.1-3.6-1.5-3.6-1.5s-3.6-2.9-4.7-3c-1.1,0-3.9,2.5-3.9,2.5s-2.6,0.5-5.3-0.4
			c-2.7-0.9-7.5-0.9-10.5-1.1s-2,0.5-3.3,0.9c-1.3,0.4-5.6,0.8-9.2,0.5c-3.6-0.3-12.5,0.6-21.6,0.9c-9.1,0.3-32.8,3-35,5.1
			s-7.6,31.2-8.3,35.9s-1.8,14.5-2.4,25.2c-0.6,10.7-5.1,37.5-7.9,45.6c-2.8,8.2-7.9,24.5-11.3,32.2c-3.4,7.8-7.6,13-9.4,15.3
			c-1.8,2.4-1.3,1.8-3.4,2.7c-2.1,0.9-4.7,3.3-7,6.9c-2.2,3.6-5.9,11.8-8.4,16.7c-2.5,4.9-4.2,14.9-4.9,19.4
			c-0.7,4.5-0.6,7.4-0.7,9.6c-0.1,2.2-1,2-2.5,4.1c-1.5,2.1-0.5,3.2,0.6,5.1c1.1,1.8,0.4,2.8-1.2,7.1s0.3,3.4,0.9,8.7
			c0.6,5.3,2,6.3,2,6.3s1.3,4.9,1.7,7.2c0.4,2.4-0.1,4.8-1.3,7.6c-1.2,2.8-0.7,6.7,0,10.7c0.7,4,2.2,3,3.2,4.5
			c0.9,1.5-0.8,2.8,0.8,5.9c1.6,3.2,0.9,2.5,0.5,4c-0.3,1.5,0,2.8,1.6,3.9c1.6,1.1,3.6,3.3,4.5,7.3c0.9,4,0.6,4.3,0.9,7.1
			c0.3,2.8,6,11.7,7.4,13c1.4,1.3,1.4,2.2,2.8,5.4c1.4,3.2,6.1,6.9,6.1,6.9l3-4.3l2,11.7l-4.7,7.5c0,0,8.9,6.5,12.7,8.8
			c3.8,2.3,4.9,4.7,4.9,4.7l7,2.6l0.2,1.4l14.9,1.3c0,0,0.7,2.3,1.3,3.2c0.5,0.9,0,0.8-0.5,1.8c-0.5,1,0.4,1.9,2.2,3.3
			c1.8,1.4,1.6,1.5,0.9,2.3s-6.7,4.3-11.3,6.2c-4.6,1.9-3,0.5-4.7,2c-1.7,1.5-2.2,2.2-4.4,3c-2.2,0.8-3.5,2.6-3.4,4.1
			c0.1,1.5,3.6,0.6,3.6,0.6s1.5,1.5,3.8,1.9c2.3,0.4,5.4-1,8.3-1.4c2.9-0.5,6.3-0.8,9-2.6c2.6-1.8,8-3.8,11.8-4.5
			c3.8-0.7,11,0.1,14.5-1.5c3.6-1.6,2.7-3.2,2.2-8.5c-0.5-5.3-0.9-3.9-0.5-4.5c0.4-0.5,2.6,0.9,6.3,4.5c3.8,3.6,7.7,10.9,9.5,13.5
			s3.9,2.2,7.2,2.1c3.4-0.1,3.5-0.5,5.6,0.3c2.1,0.8,4.6,0.3,6.9-0.7c2.3-1.1,1.3-1.3,2.6-2.2c1.3-0.9,0.2-2.3-2.8-3.2
			s-9-2-11.4-3.9c-2.4-1.8-5.9-13.9-5.9-13.9s0.5-1.2,0.9-1.9c0.3-0.7,1.1-0.6,2-1.1c0.9-0.5,0.7-1.4,0.7-2.4s0.7-1.3,1.2-1.6
			c0.5-0.3,0.5-2.4,0.7-3.9c0.3-1.5,1.2-1.2,1.7-2c0.5-0.8,0-3.5,0-3.5c26.3-15,46.6-54.1,46.6-54.1l-10.4-15.4c0,0,0.7-1.5,1.5-4.2
			c0.8-2.7,1.6-4.7,1.8-7.8s-0.7-5-2.6-9.6c-1.9-4.6-3.8-7.8-5.3-8.7c-1.6-0.9-2.2-1.9-3.6-3.2c-1.4-1.3-4.2-3-6.8-6
			c-2.6-3.1-3.5-4.1-5.3-5.5c-1.8-1.4-2.5-0.9-3.9-2.4s-2.3-1.8-4-2c-1.7-0.2-1.3-0.5-3.8-1.9c-2.5-1.4-2.9-1.7-5.3-3.3
			c-2.4-1.5-4.8-3.2-7.2-4.1c-2.3-0.9-2.6-1.2-4.7-2.3c-2.2-1-2.3-2.1-3.9-3.5s-1.5-1.1-3.5-1.6s-2.7-1.4-4.1-2.4
			c-1.4-1-7-2.1-7-2.1s0.4-0.5,1.1-1.1c0.7-0.6,1.4-1.9,1.2-3.4c-0.1-1.4-1.7-1.1-1.7-2.1s-0.2-1.9-0.5-3.1c-0.3-1.2-1-5-1.4-6.2
			s-1-1.4-1.7-2.2c-0.7-0.8-0.6-2.5-1.2-4.4c-0.5-1.9-1.7-5.4-1.7-5.4c3.6-1.4,3.5-4.2,4.7-6c1.3-1.8,3.2-3.8,7.6-10.2
			s7.5-11.7,13-16.1c5.5-4.3,13.7-6.8,24.8-12.9s30.9-18.9,34.7-21.2c3.8-2.3,8.1-6.7,9.2-7.8c1.1-1.1,1.3-0.7,2.3-1.3
			c0.9-0.7,2.6-2.6,3.5-5.3c0.9-2.7,1.3-6.4,1.6-9.6c0.3-3.3,1-2.9,1.5-6.1c0.6-3.2,1.9-15.1,1.9-15.1s0.5-0.4,0.8-0.8
			C942.2,597.5,943.1,594.6,943,593.2z M929.2,571.8c-0.1,4.3-2.4,18.1-2.4,18.1s-0.9,1.9-1.2,3.6c-0.3,1.7-0.2,2-0.4,3.4
			c-0.2,1.3-4.1,15.1-4.9,18.7c-0.7,3.6-1.1,6.4-1.9,7.6c-0.8,1.3-7.2,3.8-12.8,7.1c-5.7,3.4-14.1,8-18.4,8.6
			c-4.3,0.6-6.8,0.5-9.6,1.3c-2.8,0.8-3.4,1.5-6.3,0.7c-2.9-0.8-8-4.3-8.7-5.2c-0.7-0.9-1-0.7-0.7-2.5c0.3-1.8-1.2-2.1,0.1-3.7
			c1.3-1.6,6.2-3.6,6.2-3.6s2-0.4,4-1.7c2-1.3,2.2-1.6,2.2-1.6s-1.8,3-1.8,3.9c0,0.9,1.5,0.4,2.7,0.3c1.2-0.1,1.8,0.4,3.1,0
			c1.3-0.4,2.3-0.6,1.3-1.6c-1-1-2.9-1.1-3-2.4c-0.1-1.3,0.5-1.8,1.5-2.8s2.4-1.4,6.8-8.5c4.3-7,7.5-16.5,7-21.9
			c-0.5-5.5-1.1-6.7-0.3-7.4s2.2-3.1,1.1-6.8s-2.6-7.3-6.6-10.3c-4-3-9.9-4.3-12.6-3.6s-3,1.3-4.5,1.4c-1.5,0.1-5.6,0.5-6.8,1.8
			c-1.3,1.3-4.1,7.8-4.1,7.8s-7.2,2.2-11.6,14.1c0,0-1.7,0.7-2.5,3.6c-0.8,2.8-0.9,6.8-1.4,8.6c-0.6,1.8-1.5,3.4-1.5,5.4
			c0,2,1.9,3.1,1.2,3.9c-0.7,0.9-3.6,1.1-3.7,2.8s3.3,3.1,3.3,3.1l-0.3,1.2c0,0-1.4-0.4-3,1.2c0,0-1.3-1-2.9-1.7
			c-1.5-0.7-1.6-0.4-2.5-1.3c-0.9-0.9-0.5-0.5-1.9-1.4c-1.5-1-1.5-0.7-2.1-1.8c-0.6-1.2-2-9.9-1.9-13.4c0.1-3.5,0.4-5.2-0.2-7.1
			c-0.6-1.9-1.2-7.2-1.2-10.1s-1.3-10.1-0.7-13c0.7-3,0.4-5.4,0.7-8.2c0.3-2.9,0.7-4.4,1.3-5c0.6-0.6,12.9-5.7,18.7-7.4
			c5.8-1.7,14.8-2.3,16.7-2.5c1.9-0.2,3.7-0.1,3.7-0.1s0.6,1.9,1.5,2.1c1,0.2,1.6,0,1.6,0s4.4,0.5,5.4-0.1c1-0.6,1.6-2.8,1.7-2.9
			c0.1-0.1,5.6-0.4,8.8,1.1c3.3,1.5,4.4,3.3,7.7,3.5c3.3,0.3,3.9,0.8,5.9,0.5c2-0.3,4.3-1.2,6.9-0.7s4.8,1.9,7,3.4s3.8,2.9,6.8,5.4
			c3,2.6,4.6,2.8,7.4,6.6C929.5,566,929.4,567.4,929.2,571.8z"/>
		<path fill="#BE1E2D" d="M889.3,763.7c-1.8-1.4-2.5-0.9-3.9-2.4s-2.3-1.8-4-2c-1.7-0.2-1.3-0.5-3.8-1.9c-2.5-1.4-2.9-1.7-5.3-3.3
			c-2.4-1.5-4.8-3.2-7.2-4.1c-1-0.4-1.6-0.7-2.1-0.9c-8.9,2.5-15.5,10.5-15.5,10.5l-7.6-3.2c0,0,5.2-5.9,8.9-8.7
			c1.9-1.4,5.2-2.6,7.8-3.4c0,0,0,0,0,0c-1.5-1.3-1.5-1.1-3.5-1.6s-2.7-1.4-4.1-2.4c-1.4-1-7-2.1-7-2.1s0.4-0.5,1.1-1.1
			c0.7-0.6,1.4-1.9,1.2-3.4c-0.1-1.4-1.7-1.1-1.7-2.1s-0.2-1.9-0.5-3.1c-0.3-1.2-1-5-1.4-6.2s-1-1.4-1.7-2.2
			c-0.7-0.8-0.6-2.5-1.2-4.4c-0.5-1.9-1.7-5.4-1.7-5.4c3.6-1.4,3.5-4.2,4.7-6c0.8-1.1,1.9-2.4,3.7-4.8c-0.5-6.1,0.1-11.5,0.4-15.1
			c1.1-10.5-0.1-29.1-3.2-39.1c-3-10-5.8-24.5-5.8-24.5s-8.6,15.1-19.3,22.4c-10.7,7.3-11.3,12.8-18,25.9c-6.7,13-20.1,33-22.3,47.4
			c-2.2,14.4,12.4,16.6,24.9,17.4c12.4,0.8,16.5-16.9,16.5-16.9s4.3,0.5,6.6,0.3s8.8-5.2,8.8-5.2s1.6,3.9,1.5,9.3
			c-0.1,5.4-1.6,12.2-12.1,25.5c-10.6,13.2-22.8,12.1-40.6,7.9c-17.8-4.2-19.9-15.1-19.9-15.1s-8.2,1-14.7,1.8c0,1,0,1.9-0.1,2.6
			c-0.1,2.2-1,2-2.5,4.1c-1.5,2.1-0.5,3.2,0.6,5.1c1.1,1.8,0.4,2.8-1.2,7.1s0.3,3.4,0.9,8.7c0.4,3.3,1.1,4.9,1.6,5.7
			c3.6-1.5,8.8-3.5,15.2-5.1c11.9-3,17.3-1.1,17.3-1.1l4.4,6c0,0-11.2,1.2-15.6,2.4c-3.1,0.8-11.7,3.4-19,6.7c0.1,2-0.4,4.2-1.4,6.5
			c-1.2,2.8-0.7,6.7,0,10.7c0.7,4,2.2,3,3.2,4.5c0.9,1.5-0.8,2.8,0.8,5.9c1.6,3.2,0.9,2.5,0.5,4c-0.3,1.5,0,2.8,1.6,3.9
			c0.3,0.2,0.5,0.4,0.8,0.6c7-8.8,21.1-12.8,21.1-12.8s5.8-11.5,8.3-15.7c2.5-4.2,2.2-13.1,2.2-13.1l1.8,4.4c0,0,3.4-0.4,5.9,1.4
			c2.6,1.8,6.9,21.8,6.9,21.8l4.2,1.2v-1.6c0,0,5.2,0.8,13.9-2.2c8.7-3,19.4-23.4,19.4-23.4s2.1-6.3,2.9-7.3s4.2-2.5,4.2-2.5
			l3.8-8.3l29,12.2c3.8-3,9.8-5.4,14.6-7C891.4,765.6,890.6,764.7,889.3,763.7z"/>
		<path fill="#BE1E2D" d="M904.9,790.9c5.4,6.7,3.3,14.5,3.4,16.2c0,0.4,0.6,0.8,1.5,1.1c0.3-0.7,0.8-1.9,1.2-3.6
			c0.8-2.7,1.6-4.7,1.8-7.8s-0.7-5-2.6-9.6c-1.9-4.6-3.8-7.8-5.3-8.7c-1.6-0.9-2.2-1.9-3.6-3.2c-0.2-0.2-0.5-0.5-0.8-0.7
			c-7.4,1.5-14.6,4.4-14.6,4.4S899.5,784.1,904.9,790.9z"/>
		<path fill="#BE1E2D" d="M775.3,859l2.7-4l0.2-1.5l-3.7-35.6c0,0-3.8,1.1-12,4.4c-1.9,0.8-3.5,1.7-4.9,2.7c0.2,0.5,0.3,1,0.5,1.6
			c0.9,4,0.6,4.3,0.9,7.1c0.3,2.8,6,11.7,7.4,13c1.4,1.3,1.4,2.2,2.8,5.4C770.6,855.3,775.3,859,775.3,859z"/>
		<path fill="#BE1E2D" d="M771.4,693.4l-0.8-3.2c-0.6,0.8-0.8,0.7-2.3,1.3c-2.1,0.9-4.7,3.3-7,6.9c-2.2,3.6-5.9,11.8-8.4,16.7
			c-1.4,2.8-2.6,7.3-3.5,11.4c5.2-1.9,11.4,0,11.4,0s-0.6-11.8,1.9-20.3C765.3,697.7,771.4,693.4,771.4,693.4z"/>
	</g>
	<g>
		<path fill="#231F20" d="M1187.3,561.2c0,0-0.9,1.4-2.1,2.1c-1.2,0.7-4.5,1.5-5.7,1.9c-1.2,0.3-1.9,0.5-1.9,0.5s-1.1-0.5-3.5,0
			c-2.4,0.5-3.1,1.9-3.1,1.9s-13.3,5.4-16,6.4c-2.7,0.9-4.9,1.5-5.9,2.1c-1,0.6-1.3,1.7-1.6,2.2s-2.1,1.9-2.3,2.9
			c-0.2,1,0.1,2.6-0.3,4.7c-0.5,2.1-1.4,9.9-1.9,22.5s0.8,37.8,0.8,37.8s-9.4,17.2-11,22.4c-1.6,5.2-0.7,10.8-0.4,15.4
			c0.4,4.5,2.6,24.3,2.6,24.3s-2.4,1.3-2.8,2.8c-0.4,1.4,1.1,8,1.1,8l-0.7,4.5c0,0-13.3-0.3-14.9,0c-1.6,0.3-5.5,2.1-6.2,1.9
			c-0.7-0.2-6.8-2.8-9.4-2.8s-8.6,0.8-11.5,1.8c-2.9,1-3.8,2-3.8,2s-2.1,0.1-4,1.1s-3.7,1.6-5,2s-3.4,9.7-3.6,9.8
			c-0.2,0.1-3.8,1.8-4.9,2.5c-1.2,0.7-1.8,1.1-1.7,1.5c0.1,0.4,4.2,7.6,4.2,7.6s-5.5,4.9-5.4,5.6c0,0.7,3.9,8.3,3.9,8.3
			s-4.9,4.3-5.1,5.4c-0.2,1.1,2.4,8.3,2.4,8.3s-4.7,4.8-4.7,5.5s2.6,8.5,2.6,8.5s-4.4,5.3-4.7,6.1c-0.2,0.8,2.2,8.3,2.2,8.3
			s-3.4,5-3,5.9c0.4,0.9,4.3,7.4,4.3,7.4s-2.2,5.2-2.2,5.4s5.8,6.9,5.8,6.9l-1.8,4.2l7.5,5.3l-2,3.6l8.9,10.8l5.3-0.9l1.1,5.7
			l5.7-0.4l0.6,4.7l6,0.4l-0.4,3.8l3.8,0.5l-0.7,3l1.5,0.3l0.1,1.1h8.6l0-0.8l1.8,0l0-1.7l2.1,0l-0.1-2.4l1.6-0.3l-0.6-3.4l1.9-0.2
			l-0.9-5.5l4.1,0.1l0.5-2.3c0,0,10,11.2,14.9,16c4.8,4.8,10.5,10.6,14.7,13.9c4.2,3.4,7.5,6.9,8.5,7s3.6-2,3.6-2s-0.7,2.3,0.1,3.4
			c0.8,1.1,1.8,1.2,1.8,1.2s0.7,3.1,1.9,3.7c1.2,0.6,2,1,2,1s0.8,2,1.8,2.2c1,0.1,2.2,0.3,2.2,0.3s-4.1,4.4-5.6,5.3s-6.2,3-9.2,3.6
			c-3,0.5-5,0.8-5.6,1.4c-0.6,0.6-2,2.2-3.2,2.3c-1.2,0-3.6,0.1-3.6,1.5c0,1.4,1.1,2.1,1.8,2.1c0.7,0,1.4,0,1.4,0s4,0.7,6.3,0.7
			s10.4-0.3,13.6-1.8s6.6-2.8,8.9-2.7c2.3,0.1,8.7,0.8,9,0.7c0.2-0.1,5.8,0.6,7.7-1.5c1.9-2.1,2.1-4.8,0.7-8.7s-5.8-9.3-5.8-9.3
			s0-2.5-0.7-3.3s-2-1.8-2.5-3c-0.5-1.2,0-1.1-0.3-2.1s-1.9-1.5-2-1.7s-1.2-2-1.2-2s-0.2-1.6-1.3-3.6c-1.1-2-2.3-2.5-2.9-1.8
			c-0.6,0.7-1.9,2-1.9,2l-6.8-7.9c0,0-0.8-4.8-2.5-6.5c-1.7-1.7-3-2.2-3-2.2s-0.8-2.5-2-3.5c-1.1-1-2.1-1.4-2.1-1.4s0.3-2-1.1-3.5
			c-1.3-1.5-3.4-2-3.8-2.6c-0.4-0.6-0.8-1.9-0.8-1.9s0.5-1.9-0.4-7.9c-0.9-6.1-2.9-6.7-1.7-11c1.2-4.4,2.8-5.1,4.3-9.3
			c1.5-4.2-0.1-7.8-0.9-8.5c-0.8-0.7-2.3-1.5-2.3-1.5s7.5-13.3,8.9-17.7c1.4-4.4,1.9-7.3,2-7.6c0.2-0.3,2.2-1.1,2.5-2
			c0.3-0.9,0.4-2,0.4-2s11-1.8,14.2-3.2s4.6-3.5,4.6-3.5s6.8-8.8,8.1-10.5s4-6.2,4.8-7.9c0.7-1.7,0.8-8.3,0.2-10.2
			c-0.6-1.9-1.5-2.9-1.7-5.8c-0.2-2.8-1.6-7.2-3.1-9.5c-1.4-2.4-2.2-3.5-3-5.7s-2.9-6.3-2.9-6.3s0.5-2.7-0.6-4.3
			c0,0,0.7-1.2,0.7-2.7c0-1.5-0.7-2.3-0.7-2.3s0.7-0.5,0.8-2.1c0.1-1.6-0.8-2.9-0.8-2.9s1-1.9,0.6-3.3c-0.4-1.4-1-1.9-1-1.9
			s0.5-1.2,0.4-2.4c-0.2-1.2-0.6-2.1-0.6-2.1s0.9-1.6,0.9-2.6s-0.6-2.4-0.6-2.4s0.5-0.1,0.6-1.7c0-1.6-0.2-2.8-0.2-2.8
			s6.7-8.1,9.4-10.7c2.7-2.6,2.6-2.4,5.2-4.1s5.2-5.3,6.3-8.6c1.1-3.3,6.6-9.5,6.6-9.5s6.7-4.8,12.7-17.7s6.8-15.5,8.9-19
			s3.7-7.4,4.7-10.8c1-3.4-0.3-10.3-0.5-14.1c-0.2-3.9-3.6-12.8-3.9-15.1c-0.3-2.3-0.3-1.9-0.4-3.5c0-1.6-1-5.2-1.6-6
			c-0.5-0.7-2-1.4-2-1.7s-2.6-8-3.1-12s-0.2-5.1,1.4-7.6c1.6-2.5,5.4-5.5,8-8.4s4-3.7,4.2-5c0.2-1.3-0.4-3.6-0.4-3.6s2.7-3,2.3-4.2
			c-0.4-1.2-1.3-1.4-3-0.6c-1.6,0.8-1.9,1.2-4.2,2.2c-2.3,1-2.5,2.7-5.5,4.7c-2.9,2-6.4,5.8-8.9,8c-2.5,2.2-4.5,3.7-5.2,5.5
			c-0.7,1.8-0.8,0.8-0.4,5.4c0.4,4.7,3.7,17.9,3.7,17.9s-1.4,1.2-1.3,3.5c0.1,2.2,1.1,5.9,1.7,6.4c0.7,0.5,1.4,0.9,1.4,0.9
			s2.5,10.9,3.5,16.1c0.9,5.2,0,7.6-2.1,11.4s-3.6,4.6-7.2,9.5c-3.6,4.9-7.3,11.8-9.3,14.3c-2,2.4-5.8,4.8-8.3,6.4
			c-2.5,1.6-4.9,2.4-4.8,2.3s2.4-2.7,2.5-4.7c0.1-2,0.1-2.6,0.1-2.6s4.8,0.6,4.9-0.3c0.2-0.9-2.4-4.2-2.4-4.2s2.4-1.2,2.7-2.2
			c0.2-0.9,0.8-1.6,1.4-2c0.7-0.4,4.1-2.7,4.8-6.8c0.7-4-0.2-2.5,1.2-5.8s4.5-11.1,2.4-17.5c-2.1-6.4-7.8-8.9-10.8-10.2
			c-3-1.3-7.6-2-12.7-0.3c-5.1,1.7-8.9,4-10.7,7.5c-1.8,3.5-2.6,5.1-4.7,7.9s-3,6.7-3.3,9.1c-0.3,2.4-1.8,2.6-1.8,4.1
			c0,1.5,0.6,2.3,0.6,2.3s-3.2-0.4-3.2,2s3.2,3.5,3.2,3.7s-2.6,1.6-3,4c-0.4,2.4,0.5,5.5,0.5,5.5s-1.6,0.8-2,1.4s-0.3,2.4-0.3,2.4
			l-1.6,0.1c0,0-0.2-9.8-1.7-14.1c-1.6-4.3-2.7-6.7-2.8-9.9c-0.1-3.3-0.3-13-0.2-15.5s0.7-5.2,0.7-5.2l12.9-10.3
			c0,0,1.4,0.8,4.1-0.5s4.2-3.9,4.2-3.9s8.3-4.6,8.5-4.6c0.1,0,1.8,0.1,5.2-1.8c3.5-2,6.2-3.1,7.6-6.5c1.4-3.4,2.5-4.4,3.2-6.4
			c0.7-2,0.4-2.4,1.6-5.2c1.2-2.8,2.7-5.3,2.4-5.7c-0.2-0.4-1-0.7-1-0.7l0.2-0.9c0,0,1.2-1.2,0.9-2.5s-2.7,0.2-2.7,0.2
			s-3.7-1.2-4.9-0.8c-1.2,0.4-2.4,4.8-2.4,4.8s-2.2,1.7-2.8,1.9c-0.7,0.1-0.7-0.6-0.4-2.3s1.5-6.4,1.2-8c-0.4-1.6-1.5-2-2.4-1
			c-0.9,1-1.6,5.8-2.5,8.4c-0.9,2.6-1.6,2.1-2.8,5.2S1187.3,561.2,1187.3,561.2z"/>
		<path fill="#EF4136" d="M1142,803.3c1.4,1.4,4.6,9.6,4.6,9.6s1.3,0.4,3.6,0.9c0.8,0.2,2.3,0.4,4.3,0.5c1.1-1.9,7.5-13.4,8.8-17.4
			c1.4-4.4,1.9-7.3,2-7.6c0.2-0.3,2.2-1.1,2.5-2c0.3-0.9,0.4-2,0.4-2s11-1.8,14.2-3.2s4.6-3.5,4.6-3.5s6.8-8.8,8.1-10.5
			s4-6.2,4.8-7.9c0.7-1.7,0.8-8.3,0.2-10.2c-0.6-1.9-1.5-2.9-1.7-5.8c-0.2-2.8-1.6-7.2-3.1-9.5c-1.4-2.4-2.2-3.5-3-5.7
			s-2.9-6.3-2.9-6.3s0-0.2,0.1-0.4c-3.5-4.5-5.1-9.7-5.1-9.7s0.5-1.3,0.7-4.9c0.2-3.6-0.8-8.8-0.8-8.8s-2.4,8.1-3.8,10.1
			c-1.4,2-3.7,2.4-3.7,2.4s-1.1-1.6-3.7-8c-2.7-6.4-4.8-31.3-3.6-40.9s0-12.3,0-12.3s-0.2-0.8-2.5-2s-13-3.5-13-3.5l7.5-9.4
			c0,0-5.9,0.3-11,3c-3.1,1.7-5,3.8-6.9,5.7c0.1,1.4,0.1,2.2,0.1,2.2s-9.4,17.2-11,22.4c-1.6,5.2-0.7,10.8-0.4,15.4
			c0.4,4.5,2.6,24.3,2.6,24.3s-0.4,0.2-1,0.6l0.8,3c0,0,6.3,3,17.3,4.4s27-1.8,27-1.8s-1.2,1.3-7.8,4c-6.6,2.7-16.2,5.1-25,4.4
			c-4.6-0.4-9.4-2.2-12.9-3.8l-0.6,4.2c4.8,2.2,12.2,5.5,16.8,6.4c7.1,1.4,8.1,0.9,8.1,0.9l-4.1,5.8c0,0-5.8-2.7-9.9-3.4
			c-4.1-0.7-15.6,1.3-29.6-0.4s-13.5-2.5-19.4,1.8c-5.9,4.3-6.3,13.4-7,14.6s-4,0-4,0s-0.7,1.7,0,6.5c0.7,4.9,5.4,11.5,11.4,18.9
			c5.9,7.5,11.4,18.8,15,20.2c3.6,1.4,6.2-1.8,12.4-2.5c6.3-0.7,9.9-6.3,9.9-6.3l7,16.1C1139.1,802,1140.6,801.9,1142,803.3z"/>
		<path fill="#EF4136" d="M1137.3,873.7c4.8,4.8,10.5,10.6,14.7,13.9c0.3,0.2,0.6,0.5,0.8,0.7c4.2-2.3,11.5-6.2,15.7-8
			c1.8-0.8,3.1-2.1,3.9-3.8l-1.8-2.1c0,0-0.8-4.8-2.5-6.5c-1.7-1.7-3-2.2-3-2.2s-0.8-2.5-2-3.5c-1.1-1-2.1-1.4-2.1-1.4
			s0.3-2-1.1-3.5c-1-1.2-2.5-1.7-3.3-2.2c0,1.9,0,4,0,5.1c0,2.4-0.9,2.3-3.5,2c-2.5-0.2-7.9-7.3-12.5-15.9
			c-4.6-8.5-6.8-18.4-6.8-18.4s-4.6-1.9-8.5-7.1c-3.9-5.2-3-9.2-3-9.2c-2.1,1.7-8.1,22.3-7.2,32.2c0.8,9.9,1.8,4.7,4.9,9.4
			c1.1,1.6,1.7,3,2.2,4.6l0-0.1C1122.5,857.7,1132.5,868.9,1137.3,873.7z"/>
	</g>
</g>
</svg>
